<svg width="120" height="120" viewBox="0 0 120 120" fill="none" xmlns="http://www.w3.org/2000/svg">
<path fill-rule="evenodd" clip-rule="evenodd" d="M102.758 56.7358V52.7851C102.758 52.5851 102.798 52.387 102.874 52.2022C102.951 52.0174 103.063 51.8494 103.204 51.708C103.346 51.5665 103.514 51.4543 103.699 51.3777C103.883 51.3012 104.081 51.2618 104.281 51.2618C105.121 51.2618 105.806 51.9442 105.806 52.7851V56.7358H109.754C109.954 56.7356 110.153 56.775 110.338 56.8516C110.523 56.9282 110.691 57.0405 110.832 57.1821C110.974 57.3237 111.086 57.4918 111.162 57.6768C111.239 57.8618 111.278 58.0601 111.277 58.2603C111.277 58.6642 111.117 59.0516 110.831 59.3372C110.546 59.6229 110.158 59.7834 109.754 59.7835H105.806V63.733C105.806 64.5739 105.121 65.2562 104.281 65.2562C104.081 65.2563 103.883 65.2169 103.699 65.1404C103.514 65.0638 103.346 64.9516 103.204 64.8101C103.063 64.6687 102.951 64.5007 102.874 64.3159C102.798 64.1311 102.758 63.933 102.758 63.733V59.7835H98.8092C98.4053 59.7833 98.018 59.6228 97.7323 59.3372C97.4467 59.0515 97.2862 58.6642 97.286 58.2603C97.2857 58.0601 97.3248 57.8618 97.4013 57.6768C97.4777 57.4917 97.5898 57.3236 97.7313 57.182C97.8728 57.0404 98.0409 56.9281 98.2258 56.8515C98.4108 56.7749 98.6091 56.7356 98.8092 56.7358H102.758ZM22.1556 31.3915C22.1556 31.1915 22.195 30.9934 22.2715 30.8086C22.3481 30.6237 22.4603 30.4558 22.6017 30.3143C22.7432 30.1729 22.9111 30.0607 23.096 29.9841C23.2808 29.9076 23.4789 29.8682 23.6789 29.8682H27.6296V25.9202C27.6293 25.72 27.6685 25.5216 27.745 25.3365C27.8215 25.1514 27.9338 24.9833 28.0754 24.8416C28.2171 24.7 28.3852 24.5877 28.5703 24.5112C28.7554 24.4347 28.9538 24.3955 29.154 24.3958C29.5582 24.396 29.9457 24.5567 30.2314 24.8426C30.517 25.1284 30.6775 25.5161 30.6773 25.9202V29.8682H34.6253C34.8255 29.8682 35.0237 29.9075 35.2086 29.984C35.3935 30.0605 35.5616 30.1727 35.7032 30.3141C35.8448 30.4556 35.9571 30.6235 36.0338 30.8084C36.1104 30.9932 36.15 31.1914 36.15 31.3915C36.1496 31.7957 35.9888 32.1833 35.703 32.4691C35.4171 32.7549 35.0296 32.9156 34.6253 32.916H30.6773V36.864C30.6772 37.2681 30.5167 37.6556 30.2311 37.9414C29.9455 38.2272 29.5581 38.388 29.154 38.3885C28.9538 38.3886 28.7555 38.3493 28.5705 38.2728C28.3854 38.1962 28.2173 38.0839 28.0757 37.9423C27.9341 37.8007 27.8218 37.6326 27.7453 37.4476C27.6687 37.2626 27.6294 37.0642 27.6296 36.864V32.916H23.6789C23.2749 32.9156 22.8875 32.7548 22.6019 32.4689C22.3163 32.1831 22.1558 31.7956 22.1556 31.3915ZM95.4291 32.2738C97.3328 32.2738 98.8808 33.8232 98.8808 35.7254C98.8808 37.6277 97.3328 39.1786 95.4291 39.1786C93.5268 39.1786 91.9788 37.6279 91.9788 35.7254C91.9788 33.8232 93.5268 32.2738 95.4291 32.2738ZM95.4291 42.2261C99.0144 42.2261 101.929 39.3094 101.929 35.7252C101.929 32.1425 99.0144 29.2258 95.4291 29.2258C91.8464 29.2258 88.9311 32.1425 88.9311 35.7252C88.9311 39.3094 91.8464 42.2261 95.4291 42.2261ZM14.3921 52.2737C16.2958 52.2737 17.8424 53.8217 17.8424 55.7254C17.8424 57.6276 16.2958 59.1756 14.3921 59.1756C12.4884 59.1756 10.9404 57.6276 10.9404 55.7254C10.9404 53.8217 12.4884 52.2737 14.3921 52.2737ZM14.3921 62.2234C17.9763 62.2234 20.8901 59.3093 20.8901 55.7254C20.8901 52.1412 17.976 49.2259 14.3921 49.2259C10.8082 49.2259 7.89269 52.1414 7.89269 55.7254C7.89269 59.3093 10.8082 62.2234 14.3921 62.2234ZM63.0037 19.716C62.8621 19.5747 62.7498 19.4069 62.6732 19.2222C62.5965 19.0375 62.5571 18.8395 62.5571 18.6395C62.5571 18.4395 62.5965 18.2415 62.6732 18.0568C62.7498 17.872 62.8621 17.7042 63.0037 17.563L67.2382 13.3296C67.9647 12.6019 67.9647 11.4178 67.2382 10.6913C67.0963 10.5501 66.9837 10.3822 66.9069 10.1973C66.8301 10.0125 66.7905 9.81424 66.7905 9.61405C66.7905 9.41385 66.8301 9.21563 66.9069 9.03077C66.9837 8.8459 67.0963 8.67803 67.2382 8.53681C67.8322 7.94137 68.7958 7.94137 69.3927 8.53681C71.3062 10.4482 71.3088 13.5655 69.3927 15.4829L65.1581 19.716C65.0167 19.8576 64.8488 19.9699 64.664 20.0466C64.4791 20.1232 64.281 20.1627 64.0809 20.1627C63.8808 20.1627 63.6826 20.1232 63.4978 20.0466C63.313 19.9699 63.145 19.8576 63.0037 19.716ZM83.5095 22.6548L81.3536 24.8093C80.6271 24.0802 79.4444 24.0828 78.7179 24.8093L74.4845 29.0412C74.1986 29.3271 73.8109 29.4877 73.4066 29.4877C73.0023 29.4877 72.6145 29.3271 72.3286 29.0412C72.187 28.8999 72.0747 28.7321 71.9981 28.5474C71.9215 28.3626 71.882 28.1646 71.882 27.9646C71.882 27.7646 71.9215 27.5665 71.9981 27.3818C72.0747 27.197 72.187 27.0292 72.3286 26.8879L76.562 22.6548C78.4767 20.7386 81.5933 20.7386 83.5095 22.6548ZM71.1708 18.7207C70.574 19.3147 70.574 20.2798 71.1708 20.8766C71.4566 21.1618 71.8438 21.322 72.2475 21.322C72.6512 21.322 73.0384 21.1618 73.3241 20.8766L80.3571 13.8437C80.499 13.7023 80.6116 13.5343 80.6884 13.3493C80.7652 13.1644 80.8048 12.966 80.8048 12.7657C80.8048 12.5654 80.7652 12.3671 80.6884 12.1821C80.6116 11.9971 80.499 11.8291 80.3571 11.6878C80.2157 11.5462 80.0478 11.4339 79.8629 11.3573C79.6781 11.2806 79.4799 11.2412 79.2798 11.2412C79.0797 11.2412 78.8816 11.2806 78.6968 11.3573C78.5119 11.4339 78.344 11.5462 78.2026 11.6878L71.1708 18.7207ZM63.7729 41.9863L50.0585 28.2749L53.1752 21.6362L70.4086 38.8697L63.7729 41.9863ZM39.691 50.3467L41.6981 52.3539L37.9128 54.132L39.691 50.3467ZM51.2688 47.8586L44.1862 40.7762L41.0696 47.4149L44.6302 50.9767L51.2688 47.8586ZM45.5633 37.8442L54.2007 46.4815L60.8408 43.3634L48.6814 31.2067L45.5633 37.8442ZM50.8856 19.3464L33.3612 56.6573C32.7543 57.9471 34.0995 59.285 35.3876 58.6865L72.7011 41.1593L75.8578 44.3174C76.452 44.9131 77.4188 44.9136 78.0123 44.3174C78.1542 44.1762 78.2668 44.0084 78.3436 43.8235C78.4204 43.6386 78.46 43.4404 78.46 43.2402C78.46 43.04 78.4204 42.8418 78.3436 42.6569C78.2668 42.4721 78.1542 42.3042 78.0123 42.163L74.0988 38.2481L49.8819 14.0326C49.596 13.7472 49.2086 13.5869 48.8046 13.5869C48.4007 13.5869 48.0133 13.7472 47.7274 14.0326C47.5855 14.1738 47.4729 14.3417 47.3961 14.5265C47.3193 14.7114 47.2797 14.9096 47.2797 15.1098C47.2797 15.31 47.3193 15.5082 47.3961 15.6931C47.4729 15.878 47.5855 16.0458 47.7274 16.187L50.8856 19.3464ZM67.0397 70.3013C67.0397 74.183 63.8816 77.341 59.9998 77.341C56.1195 77.341 52.9601 74.183 52.9601 70.3013C52.9601 66.4181 56.1195 63.2616 59.9998 63.2616C63.8816 63.2614 67.0397 66.4181 67.0397 70.3013ZM49.9124 70.3013C49.9124 75.8633 54.4378 80.3887 59.9998 80.3887C65.5618 80.3887 70.0875 75.8633 70.0875 70.3013C70.0875 64.7393 65.562 60.215 59.9998 60.215C54.4378 60.215 49.9124 64.739 49.9124 70.3013ZM26.4855 79.1868C28.7088 79.1868 30.5189 80.9952 30.5189 83.2202C30.5189 85.4453 28.7091 87.2537 26.4855 87.2537C24.2607 87.2537 22.4508 85.445 22.4508 83.2202C22.4508 80.9954 24.2607 79.1868 26.4855 79.1868ZM26.4855 90.3014C30.3879 90.3014 33.5652 87.1241 33.5652 83.2202C33.5652 79.315 30.3879 76.139 26.4855 76.139C22.579 76.139 19.4028 79.315 19.4028 83.2202C19.4028 87.1241 22.5788 90.3014 26.4855 90.3014ZM93.5158 87.2537C91.291 87.2537 89.4824 85.445 89.4824 83.2202C89.4824 80.9954 91.291 79.1868 93.5158 79.1868C95.7406 79.1868 97.5492 80.9952 97.5492 83.2202C97.5492 85.4453 95.7406 87.2537 93.5158 87.2537ZM93.5158 76.139C89.612 76.139 86.4346 79.315 86.4346 83.2202C86.4346 87.1241 89.612 90.3014 93.5158 90.3014C97.4208 90.3014 100.597 87.1241 100.597 83.2202C100.597 79.315 97.4208 76.139 93.5158 76.139ZM110.405 84.4111C110.629 84.1519 110.738 83.8183 110.716 83.4722C110.638 82.3178 109.2 81.8602 108.454 82.7155L99.6017 92.8843C96.3725 96.5947 90.6591 96.5942 87.4299 92.8843L79.5629 83.85L77.8647 85.9106L85.1691 94.7714C86.3931 96.2561 87.0135 97.9831 87.0135 99.9048V108.276C87.0135 108.595 87.2808 108.862 87.5993 108.862H99.432C99.7491 108.862 100.019 108.595 100.019 108.276V99.9048C100.019 97.9831 100.638 96.2561 101.861 94.7714L110.377 84.4414C110.385 84.4306 110.396 84.4195 110.405 84.4111ZM73.495 86.4154L86.6194 70.4969C87.1258 69.8952 87.3816 69.2244 87.3264 68.4223C87.1532 65.8963 84.0185 64.9075 82.4012 66.7682L68.7572 82.4412C66.4868 85.0507 63.4584 86.429 59.9998 86.429C56.5412 86.429 53.5129 85.0505 51.2439 82.4412L37.5984 66.7682C37.1091 66.2045 36.4239 65.8654 35.67 65.8131C33.2264 65.6535 31.6805 68.4773 33.3805 70.4971L46.5049 86.4156C48.2871 88.5811 49.1556 90.9962 49.1556 93.8014V106.704C49.1556 107.656 49.9304 108.431 50.8815 108.431H69.1186C70.0697 108.431 70.8444 107.656 70.8444 106.704V93.8014C70.8442 90.996 71.714 88.5809 73.495 86.4154ZM34.8305 94.7717L42.1349 85.9109L40.4367 83.8474L32.5712 92.8846C29.3424 96.595 23.6264 96.5945 20.3979 92.8846L11.5455 82.7129C11.3191 82.4564 11.0005 82.2998 10.6592 82.2773C9.56453 82.201 8.80397 83.4742 9.62381 84.4416L18.1385 94.7717C19.3613 96.2563 19.98 97.9834 19.98 99.905V108.276C19.98 108.595 20.2503 108.862 20.5673 108.862H32.4C32.7185 108.862 32.9859 108.595 32.9859 108.276V99.905C32.9861 97.9834 33.6065 96.2563 34.8305 94.7717ZM113.754 83.2644C113.487 79.3906 108.669 77.8277 106.158 80.713L97.3037 90.8846C96.8343 91.4294 96.2529 91.8664 95.5992 92.1661C94.9454 92.4657 94.2348 92.6208 93.5157 92.6208C92.7966 92.6208 92.0859 92.4657 91.4322 92.1661C90.7785 91.8664 90.1971 91.4294 89.7276 90.8846L81.5271 81.4642L88.9596 72.4505C92.3336 68.4535 89.3057 62.4146 84.1186 62.7751C82.5526 62.8812 81.1272 63.5911 80.1017 64.7683L66.4577 80.4415C64.7609 82.3906 62.5856 83.3818 59.9996 83.3818C57.4136 83.3818 55.2399 82.3906 53.5416 80.4415L39.8977 64.7683C36.4971 60.8635 29.994 62.9885 29.6321 68.2118C29.5246 69.7709 30.0236 71.2747 31.0409 72.4507L38.4723 81.4644L30.2717 90.8849C29.8024 91.4296 29.2212 91.8667 28.5676 92.1663C27.914 92.466 27.2034 92.6211 26.4844 92.6211C25.7654 92.6211 25.0549 92.466 24.4013 92.1663C23.7477 91.8667 23.1664 91.4296 22.6971 90.8849L13.8418 80.7132C11.3316 77.8294 6.51341 79.3886 6.24509 83.2646C6.16517 84.4142 6.53453 85.5254 7.28309 86.3938L15.7882 96.713C16.5699 97.6615 16.9323 98.676 16.9323 99.9055V108.277C16.9323 110.283 18.5631 111.911 20.5673 111.911H32.4C34.4057 111.911 36.0336 110.283 36.0336 108.277V99.9055C36.0336 98.676 36.3989 97.6613 37.1806 96.713L44.1101 88.3058C45.4712 89.939 46.1077 91.675 46.1077 93.8018V106.704C46.1077 109.337 48.2499 111.479 50.8813 111.479H69.1184C71.7497 111.479 73.892 109.337 73.892 106.704V93.8018C73.892 91.6752 74.5299 89.939 75.8907 88.3058L82.8188 96.713C83.6004 97.6615 83.9657 98.676 83.9657 99.9055V108.277C83.9657 110.283 85.5936 111.911 87.5993 111.911H99.432C101.436 111.911 103.067 110.283 103.067 108.277V99.9055C103.067 98.676 103.429 97.6613 104.213 96.713L112.716 86.3938C113.087 85.9661 113.369 85.4695 113.547 84.9325C113.725 84.3955 113.796 83.8287 113.754 83.2644Z" fill="black"/>
</svg>
