<svg width="120" height="120" viewBox="0 0 120 120" fill="none" xmlns="http://www.w3.org/2000/svg">
<path fill-rule="evenodd" clip-rule="evenodd" d="M104.934 76.2545L104.74 76.477C104.469 76.7666 104.068 76.83 103.719 76.6399C97.512 73.2132 91.3829 71.6914 85.4474 72.1039V67.3272C85.4474 64.141 84.2191 61.308 81.8916 59.1317L79.021 56.4538C85.0985 48.0449 91.2922 41.7166 97.9258 37.1326C98.3006 36.8791 98.7922 36.9607 99.0636 37.3214C99.5292 37.9486 99.2316 38.3119 99.1282 38.4478C94.4213 44.238 92.1456 49.5293 92.1456 54.6228C92.1456 54.9384 92.1586 55.2514 92.1715 55.559C92.1845 55.6858 92.1845 55.8098 92.1974 55.9327C92.2104 55.9716 92.2104 56.0102 92.2104 56.0477V56.0736C92.9088 63.0497 98.4818 68.6436 103.447 73.6154C103.938 74.117 104.443 74.6162 104.921 75.109C105.232 75.4258 105.245 75.9274 104.934 76.2545ZM82.3831 93.7303V67.3272C82.3831 64.9776 81.5167 62.9748 79.7969 61.3726L60 42.8894L40.2031 61.3726C38.4962 62.9746 37.6169 64.9776 37.6169 67.3272V93.7303C37.6169 96.1044 39.5566 98.0362 41.9227 98.0362H50.5476V82.7134C50.5476 77.501 54.7889 73.2598 60 73.2598C65.2111 73.2598 69.4524 77.501 69.4524 82.7134V98.0362H78.0773C80.4564 98.0364 82.3831 96.1044 82.3831 93.7303ZM34.5523 67.3272V72.1037C28.6301 71.6911 22.488 73.2132 16.2811 76.6397C15.9319 76.8298 15.5441 76.7664 15.2724 76.4767L15.0655 76.2542C14.7682 75.9271 14.7682 75.4253 15.0785 75.1085C15.5698 74.616 16.0613 74.1194 16.5655 73.615C21.5179 68.6431 27.1039 63.0492 27.7894 56.0705C27.7894 56.0628 27.8023 56.0549 27.8023 56.0472V55.9322C27.8153 55.8082 27.8282 55.6853 27.8282 55.5586C27.8543 55.2472 27.8673 54.9348 27.8671 54.6223C27.8671 49.529 25.5785 44.2378 20.8846 38.4473C20.7682 38.3114 20.4708 37.9481 20.9362 37.321C21.2078 36.9602 21.7121 36.8774 22.074 37.1321C28.7203 41.7161 34.9142 48.0444 40.9918 56.4533L38.1211 59.1312C35.7938 61.308 34.5523 64.141 34.5523 67.3272ZM18.6475 61.2485C21.6991 61.2485 24.2465 58.9973 24.6991 56.0633L24.738 55.8422V55.8086L24.7769 55.3858V55.1117C24.7769 51.7291 22.0226 48.9749 18.6478 48.9749C15.2599 48.9749 12.5057 51.7291 12.5057 55.1117C12.5054 58.4942 15.2597 61.2485 18.6475 61.2485ZM37.061 29.3575C43.6944 36.2806 47.9357 40.7249 50.6772 47.4101L58.9529 39.6737C59.5478 39.1241 60.4658 39.1241 61.0476 39.6737L69.3362 47.4101C72.0646 40.7249 76.3188 36.2806 82.9524 29.3575C84.2066 28.0361 85.5257 26.6693 86.935 25.164C87.3098 24.7682 87.3098 24.1632 86.9479 23.7571L86.7281 23.5075C86.3789 23.117 85.8358 23.0419 85.3963 23.3239L66.5174 35.3599C62.4444 37.963 57.5695 37.963 53.4833 35.3599L34.6174 23.3239C34.1777 23.0419 33.6216 23.1197 33.2726 23.5075L33.0528 23.7583C32.6906 24.1632 32.7036 24.7682 33.0658 25.164C34.3923 26.5668 35.7241 27.9646 37.061 29.3575ZM60 21.9636C63.3878 21.9636 66.1421 24.7166 66.1421 28.0992C66.1421 31.3397 63.6206 33.9994 60.4267 34.2206C60.1423 34.2322 59.8579 34.2322 59.5733 34.2206C56.3923 33.9996 53.8709 31.3397 53.8709 28.0992C53.8709 24.7166 56.6251 21.9636 60 21.9636ZM107.495 55.1114C107.495 51.7289 104.74 48.9746 101.365 48.9746C97.9776 48.9746 95.2234 51.7289 95.2234 55.1114C95.2234 55.2031 95.2234 55.295 95.2363 55.3855C95.2493 55.5264 95.2493 55.6675 95.2622 55.8084C95.2622 55.8202 95.2752 55.8305 95.2752 55.8408C95.2752 55.9159 95.2882 55.9896 95.3011 56.0633C95.7538 58.9973 98.3011 61.2485 101.366 61.2485C104.74 61.2485 107.495 58.4942 107.495 55.1114ZM105.607 71.4494C103.279 69.109 100.796 66.6185 98.844 63.9562C99.6638 64.1918 100.512 64.3115 101.365 64.3118C106.434 64.3118 110.559 60.1831 110.559 55.1117C110.559 50.0402 106.434 45.9115 101.365 45.9115C99.9133 45.9111 98.4818 46.2555 97.1887 46.9162C98.2231 44.8303 99.6586 42.6593 101.508 40.381C102.658 38.9534 102.671 37.0332 101.52 35.4931C100.923 34.6807 100.031 34.134 99.0358 33.9695C98.0406 33.805 97.0205 34.0357 96.193 34.6126C89.3398 39.3401 82.9778 45.8054 76.7582 54.3461L71.754 49.6625C74.2495 42.8765 78.4262 38.5097 85.163 31.4767C86.5019 30.0751 87.8381 28.6708 89.1715 27.264C90.6326 25.7033 90.6715 23.3189 89.2363 21.7181L89.0165 21.4685C88.3687 20.7375 87.4809 20.2622 86.5135 20.1285C85.546 19.9947 84.5626 20.2113 83.7408 20.7391L68.9609 30.1656C69.1162 29.501 69.2066 28.8106 69.2066 28.0992C69.2066 23.0278 65.0818 18.899 60 18.899C54.9312 18.899 50.8063 23.0278 50.8063 28.0992C50.8063 28.8103 50.8838 29.5008 51.0391 30.1656L36.2592 20.7391C34.5523 19.6505 32.3412 19.9567 30.9835 21.4685L30.7637 21.7181C29.3412 23.3189 29.3671 25.7033 30.8412 27.264C32.2637 28.7782 33.5825 30.1502 34.8497 31.4767C41.5867 38.5099 45.7632 42.8765 48.259 49.6625L43.2418 54.3461C37.0351 45.8054 30.6732 39.3401 23.8198 34.6126C22.087 33.4152 19.7467 33.8018 18.4793 35.4931C17.3285 37.0332 17.3414 38.9534 18.5052 40.381C20.3542 42.6593 21.7896 44.8303 22.824 46.9162C21.5309 46.2554 20.0994 45.9111 18.6473 45.9115C13.5785 45.9115 9.44064 50.0402 9.44064 55.1117C9.44064 60.1831 13.5785 64.3118 18.6473 64.3118C19.5137 64.3118 20.3671 64.1851 21.1687 63.9562C19.2163 66.6187 16.7335 69.1104 14.393 71.4521C13.8888 71.9602 13.3846 72.4632 12.893 72.9598C11.4319 74.4442 11.406 76.8079 12.8155 78.3365L13.0224 78.5614C13.7854 79.3774 14.8198 79.8091 15.8801 79.8091C16.5403 79.8087 17.1897 79.6415 17.7679 79.3229C23.5222 76.1458 29.16 74.7545 34.5521 75.1759V93.7301C34.5521 97.793 37.8624 101.101 41.9227 101.101H52.0862C52.9267 101.101 53.6122 100.414 53.6122 99.5683V82.7131C53.6122 79.1894 56.4828 76.3226 60 76.3226C63.5302 76.3226 66.4008 79.1894 66.4008 82.7131V99.5683C66.4008 100.414 67.086 101.101 67.9267 101.101H78.0773C82.1376 101.101 85.4477 97.793 85.4477 93.7301V75.1759C90.8527 74.7545 96.4906 76.1458 102.245 79.3229C102.819 79.6398 103.464 79.807 104.119 79.8091C105.18 79.8091 106.227 79.3774 106.977 78.5614L107.184 78.3365C108.606 76.8082 108.568 74.4444 107.106 72.9598C106.615 72.4632 106.124 71.9602 105.607 71.4494Z" fill="black"/>
</svg>
