<svg width="120" height="120" viewBox="0 0 120 120" fill="none" xmlns="http://www.w3.org/2000/svg">
<path d="M118.125 66.0938H81.8653L81.1678 69.8438H118.125C118.622 69.8438 119.099 69.6462 119.451 69.2946C119.802 68.9429 120 68.466 120 67.9688C120 67.4715 119.802 66.9946 119.451 66.6429C119.099 66.2913 118.622 66.0938 118.125 66.0938ZM118.125 111.562H1.875C1.37772 111.562 0.900806 111.76 0.549175 112.112C0.197544 112.463 0 112.94 0 113.438C0 113.935 0.197544 114.412 0.549175 114.763C0.900806 115.115 1.37772 115.312 1.875 115.312H118.125C118.622 115.312 119.099 115.115 119.451 114.763C119.802 114.412 120 113.935 120 113.438C120 112.94 119.802 112.463 119.451 112.112C119.099 111.76 118.622 111.562 118.125 111.562ZM113.438 4.6875C112.14 4.6875 110.871 5.07238 109.792 5.79348C108.712 6.51458 107.871 7.5395 107.375 8.73864C106.878 9.93778 106.748 11.2573 107.001 12.5303C107.254 13.8033 107.879 14.9726 108.797 15.8904C109.715 16.8082 110.884 17.4332 112.157 17.6864C113.43 17.9396 114.75 17.8097 115.949 17.313C117.148 16.8163 118.173 15.9751 118.894 14.8959C119.615 13.8167 120 12.5479 120 11.25C119.998 9.51013 119.306 7.84208 118.076 6.6118C116.845 5.38153 115.177 4.68949 113.438 4.6875ZM113.438 14.0625C112.881 14.0625 112.337 13.8975 111.875 13.5885C111.412 13.2795 111.052 12.8402 110.839 12.3263C110.626 11.8124 110.571 11.2469 110.679 10.7013C110.788 10.1557 111.055 9.6546 111.449 9.26126C111.842 8.86793 112.343 8.60006 112.889 8.49154C113.434 8.38302 114 8.43872 114.514 8.65159C115.028 8.86446 115.467 9.22495 115.776 9.68746C116.085 10.15 116.25 10.6937 116.25 11.25C116.249 11.9957 115.953 12.7106 115.425 13.2379C114.898 13.7652 114.183 14.0618 113.438 14.0625ZM32.5763 69.7388L31.6031 66.0938H15V69.8438H32.4225L32.5763 69.7388ZM1.875 102.188C2.37228 102.188 2.84919 101.99 3.20083 101.638C3.55246 101.287 3.75 100.81 3.75 100.312V57.1134C3.76059 56.6262 3.96388 56.1631 4.31535 55.8255C4.66681 55.4879 5.13776 55.3035 5.625 55.3125C6.11224 55.3035 6.58319 55.4879 6.93465 55.8255C7.28612 56.1631 7.48941 56.6262 7.5 57.1134V100.312C7.5 100.81 7.69754 101.287 8.04918 101.638C8.40081 101.99 8.87772 102.188 9.375 102.188C9.87228 102.188 10.3492 101.99 10.7008 101.638C11.0525 101.287 11.25 100.81 11.25 100.312V57.1134C11.2384 55.632 10.6396 54.2156 9.58513 53.175C8.53064 52.1344 7.10647 51.5545 5.625 51.5625C4.14353 51.5545 2.71936 52.1344 1.66487 53.175C0.610375 54.2156 0.0116457 55.632 0 57.1134L0 100.312C0 100.81 0.197544 101.287 0.549175 101.638C0.900806 101.99 1.37772 102.188 1.875 102.188Z" fill="black"/>
<path d="M68.4187 44.6616C69.3123 44.403 70.1412 43.9587 70.8513 43.3578C71.5613 42.7568 72.1364 42.0126 72.539 41.1741L80.1965 29.0953L99.5278 41.9972C99.8201 42.1919 100.161 42.3007 100.512 42.3112L112.091 42.6525C112.169 42.6553 112.246 42.6562 112.323 42.6562C114.19 42.6632 115.996 41.9922 117.405 40.768C118.814 39.5437 119.732 37.8495 119.986 36C120.036 35.5836 119.945 35.1624 119.727 34.8038C119.51 34.4452 119.178 34.1699 118.786 34.0219L79.964 19.3866L64.8168 10.5291C63.8797 9.9818 62.8044 9.71702 61.7203 9.76659C60.6362 9.81615 59.5895 10.1779 58.7062 10.8084L54.9103 13.5206C53.6132 12.0971 51.9313 11.0801 50.0681 10.5928C48.8732 10.2858 47.6279 10.2278 46.4097 10.4223C45.1914 10.6168 44.0261 11.0597 42.9862 11.7234C38.5003 14.5697 37.1015 20.8856 39.8672 25.8028L39.9984 26.0372L36.704 30.1491C36.5177 30.3811 36.3895 30.6543 36.33 30.9459L32.1647 51.3712C31.9906 52.2246 32.0162 53.1066 32.2397 53.9484L36.8831 71.3316L16.6725 85.1916C16.0122 85.6209 15.4486 86.183 15.0173 86.842C14.586 87.5009 14.2966 88.2425 14.1675 89.0194C14.0088 90.0497 14.0579 91.1014 14.3118 92.1125C14.5657 93.1236 15.0193 94.0737 15.6459 94.9069L20.5875 101.233C20.6471 101.31 20.7129 101.382 20.7843 101.449C21.2119 101.853 21.7595 102.108 22.3445 102.174C22.9294 102.24 23.52 102.114 24.0272 101.815L26.4778 100.385C27.7225 99.6479 28.6583 98.4852 29.112 97.1117C29.5656 95.7383 29.5064 94.2469 28.9453 92.9137C28.92 92.854 28.8919 92.7955 28.8609 92.7384L28.7606 92.5566L48.7218 80.5875C49.4951 80.0846 50.1463 79.4154 50.628 78.6288C51.1097 77.8422 51.4098 76.958 51.5062 76.0406C51.6355 74.949 51.5281 73.8423 51.1912 72.7959L52.6134 65.7206L62.1993 68.9841L59.4328 94.4775C59.3292 95.1246 59.3661 95.7865 59.5412 96.418C59.7162 97.0496 60.0252 97.636 60.4472 98.1375C60.8646 98.636 61.3862 99.037 61.9753 99.3124C62.5644 99.5877 63.2066 99.7307 63.8568 99.7312H74.0109C74.8845 99.7245 75.7266 99.4036 76.3832 98.8274C77.0399 98.2511 77.4673 97.4578 77.5875 96.5925L77.7497 95.4347C77.9577 94.0327 77.6855 92.6016 76.9773 91.374C76.2691 90.1463 75.1665 89.1942 73.8487 88.6725L78.6506 62.8706C78.8134 61.956 78.7589 61.016 78.4915 60.1263C78.2241 59.2367 77.7513 58.4223 77.1112 57.7491C76.2534 56.8602 75.2017 56.1818 74.0382 55.7669C72.8747 55.3521 71.631 55.2119 70.4043 55.3575C69.5663 55.4411 68.7457 55.6513 67.9706 55.9809L59.8875 51.4406L59.265 46.4972L68.2547 44.7019C68.3096 44.6909 68.364 44.6774 68.4178 44.6616H68.4187ZM82.4831 24.3431L115.814 36.9084C115.446 37.5345 114.917 38.0502 114.282 38.4016C113.647 38.7529 112.928 38.9269 112.203 38.9053L101.161 38.5791L82.1259 25.8741C82.3241 25.3855 82.4447 24.8689 82.4831 24.3431ZM60.8859 13.8591C61.1804 13.6488 61.5293 13.5281 61.8908 13.5117C62.2522 13.4952 62.6107 13.5836 62.9231 13.7662L73.6331 20.0287C73.3405 20.2687 73.0737 20.5386 72.8372 20.8341L70.9959 23.2631L62.4365 20.0222C62.1441 19.9114 61.8286 19.8755 61.5188 19.918C61.2089 19.9604 60.9147 20.0797 60.6628 20.265L59.5228 21.1031C59.5172 21.0937 59.5134 21.0825 59.5078 21.0722L57.0093 16.6312L60.8859 13.8591ZM60.794 24.8222L62.0625 23.8894L68.6343 26.3784L63.7565 32.8125H58.8815C60.5532 30.508 61.2412 27.6338 60.794 24.8222ZM44.9943 14.8894C45.8397 14.3496 46.8217 14.0627 47.8247 14.0625C48.2729 14.0629 48.7194 14.1186 49.154 14.2284C49.9955 14.4588 50.7818 14.8571 51.4654 15.3992C52.149 15.9414 52.7158 16.6162 53.1318 17.3831L56.2387 22.9097C58.0434 26.1178 57.209 30.1884 54.3806 31.9847C53.7694 32.3736 53.0848 32.6329 52.3692 32.7464C51.6537 32.8599 50.9225 32.8253 50.2209 32.6447C49.3794 32.4143 48.5932 32.016 47.9096 31.4739C47.226 30.9317 46.6591 30.2569 46.2431 29.49L43.1362 23.9634C41.3315 20.7553 42.1659 16.6847 44.9943 14.8884V14.8894ZM24.5887 97.1456L22.9153 98.1225L18.6375 92.6475C18.0039 91.7981 17.7247 90.7361 17.8584 89.685C17.9012 89.403 18.0044 89.1336 18.1608 88.8951C18.3173 88.6566 18.5234 88.4547 18.765 88.3031L20.9925 86.775L24.63 92.82L25.5178 94.4419C25.7061 94.9299 25.7162 95.4688 25.5462 95.9635C25.3763 96.4583 25.0372 96.8763 24.5887 97.1456ZM47.7843 75.5784C47.7556 75.9367 47.6492 76.2845 47.4726 76.5976C47.296 76.9107 47.0533 77.1816 46.7615 77.3916L26.8912 89.3044L24.0853 84.6441L43.395 71.5866C43.9306 71.2951 44.5527 71.2043 45.1493 71.3305C45.746 71.4566 46.2781 71.7914 46.65 72.2747C47.0701 72.7081 47.3895 73.2287 47.5856 73.7995C47.7816 74.3704 47.8495 74.9784 47.7843 75.5784ZM74.0362 94.9153L73.8862 95.9812H63.8587C63.7551 95.9808 63.6529 95.9574 63.5594 95.9128C63.4659 95.8683 63.3834 95.8036 63.3178 95.7234C63.24 95.6319 63.1837 95.5241 63.1528 95.4079C63.122 95.2918 63.1175 95.1703 63.1397 95.0522C63.1462 95.0128 63.1518 94.9744 63.1565 94.935L63.6459 90.4275L68.8068 90.7509L72.449 92.1459C72.9857 92.363 73.434 92.7539 73.7221 93.256C74.0102 93.7582 74.1215 94.3424 74.0381 94.9153H74.0362ZM70.7831 59.0887C71.4302 59.0049 72.0879 59.0693 72.7064 59.2772C73.3249 59.4851 73.888 59.831 74.3531 60.2887C74.5984 60.5337 74.7817 60.8337 74.888 61.1636C74.9943 61.4936 75.0205 61.8441 74.9643 62.1862L70.3293 87.0891L64.0143 86.6934L67.5722 61.5469C67.7493 60.2934 69.0993 59.2603 70.7831 59.0887ZM64.8506 58.53C64.3345 59.2742 63.9952 60.1265 63.8587 61.0219L63.2428 65.3794L51.8006 61.4841C51.5481 61.398 51.2801 61.3668 51.0146 61.3926C50.749 61.4183 50.4921 61.5005 50.2608 61.6335C50.0296 61.7665 49.8294 61.9474 49.6736 62.1639C49.5178 62.3805 49.41 62.6278 49.3575 62.8894L48.1884 68.7047C47.1996 67.9614 46.0052 67.5417 44.7688 67.5031C43.5324 67.4645 42.3142 67.8089 41.2809 68.4891L40.199 69.2203L36.2353 54.375H57.4556L64.8506 58.53ZM57.2531 43.0753L47.3681 40.3781C47.1305 40.3134 46.8824 40.296 46.6381 40.3271C46.3938 40.3582 46.158 40.4372 45.9442 40.5594C45.7304 40.6816 45.5428 40.8447 45.392 41.0395C45.2413 41.2342 45.1304 41.4568 45.0656 41.6944C45.0008 41.932 44.9835 42.18 45.0146 42.4243C45.0457 42.6686 45.1246 42.9044 45.2469 43.1182C45.3691 43.332 45.5322 43.5197 45.727 43.6704C45.9217 43.8212 46.1442 43.9321 46.3818 43.9969L55.484 46.4794L56.0062 50.625H36.1434L39.914 32.1394L41.9803 29.5603L42.974 31.3284C43.6401 32.5392 44.5447 33.6024 45.6331 34.4539C46.7216 35.3053 47.9713 35.9272 49.3068 36.2822C50.0437 36.4683 50.8006 36.5628 51.5606 36.5634L51.5793 36.5625H64.6875C64.9769 36.5626 65.2624 36.4957 65.5217 36.3671C65.7809 36.2384 66.0069 36.0515 66.1818 35.8209L75.81 23.1216C76.0199 22.8647 76.3004 22.6749 76.6169 22.5754C76.9334 22.476 77.2721 22.4713 77.5912 22.5619C77.8294 22.6216 78.05 22.7368 78.2351 22.8981C78.4202 23.0594 78.5645 23.2622 78.6562 23.49C78.7351 23.6898 78.7648 23.9057 78.7429 24.1194C78.7211 24.3331 78.6483 24.5384 78.5306 24.7181L69.3056 39.2709C69.2573 39.3476 69.2144 39.4274 69.1772 39.51C69.0097 39.874 68.7675 40.1986 68.4663 40.4627C68.165 40.7268 67.8115 40.9245 67.4287 41.0428L57.2531 43.0753Z" fill="black"/>
</svg>
