<svg width="120" height="120" viewBox="0 0 120 120" fill="none" xmlns="http://www.w3.org/2000/svg">
<g clip-path="url(#clip0_40_2)">
<path d="M119.311 70.9987L106.657 58.3441C106.471 58.1592 106.256 58.0068 106.02 57.8932C106.02 57.8927 106.021 57.8923 106.021 57.892L86.1472 48.2658C86.6945 46.7782 86.9694 45.3588 86.9694 44.0109C86.9694 34.6517 79.5196 27.0373 70.3623 27.0373C66.5922 27.0373 62.9251 28.3688 60.0006 30.7493C57.0761 28.3688 53.4091 27.0373 49.6389 27.0373C40.4817 27.0373 33.0318 34.6517 33.0318 44.0109C33.0318 45.3588 33.3065 46.778 33.8538 48.2653L13.9788 57.8922L13.9793 57.8934C13.7435 58.0071 13.5285 58.1595 13.3432 58.3443L0.688617 70.9987C0.42656 71.2609 0.230419 71.5815 0.116296 71.9342C0.00217208 72.2869 -0.0266806 72.6616 0.032106 73.0276C0.0908926 73.3936 0.235642 73.7405 0.454473 74.0397C0.673304 74.3389 0.959977 74.582 1.29096 74.7489L12.6567 80.4773V95.8597C12.6567 96.3 12.7807 96.7314 13.0146 97.1045C13.2484 97.4775 13.5826 97.7772 13.9788 97.9691L28.3657 104.938C28.9252 105.208 29.5693 105.246 30.1565 105.042C30.7437 104.838 31.2259 104.409 31.4969 103.85C32.0611 102.685 31.5743 101.283 30.4092 100.719L17.3444 94.3907V82.8393L45.7028 97.1321C46.1432 97.3542 46.6425 97.4316 47.1294 97.3533C47.6164 97.2751 48.0663 97.0452 48.415 96.6964L57.6573 87.4541V113.917L45.6693 108.111C44.5049 107.548 43.1029 108.034 42.5383 109.198C41.9742 110.364 42.461 111.765 43.626 112.329L58.978 119.766C59.2967 119.92 59.6462 120 60.0004 120C60.3545 120 60.704 119.92 61.0227 119.766L106.021 97.9693C106.418 97.7774 106.752 97.4777 106.986 97.1046C107.219 96.7316 107.344 96.3002 107.344 95.86V80.4773L118.709 74.7489C119.04 74.582 119.327 74.3389 119.546 74.0397C119.765 73.7405 119.909 73.3936 119.968 73.0275C120.027 72.6615 119.998 72.2867 119.884 71.9341C119.77 71.5814 119.573 71.2608 119.311 70.9987ZM49.6389 31.7248C52.9361 31.7248 56.0041 33.0823 58.278 35.547C58.4974 35.7849 58.7638 35.9747 59.0603 36.1046C59.3568 36.2344 59.6769 36.3015 60.0006 36.3015C60.3243 36.3015 60.6445 36.2344 60.9409 36.1046C61.2374 35.9747 61.5038 35.7849 61.7233 35.547C63.9972 33.082 67.0651 31.7248 70.3623 31.7248C76.9349 31.7248 82.2821 37.2363 82.2821 44.0112C82.2821 47.8732 78.2122 53.5158 70.8219 59.8997C66.4827 63.648 62.0896 66.711 60.0004 68.1128C57.9196 66.7174 53.553 63.6733 49.2189 59.9341C41.8031 53.5354 37.7191 47.8805 37.7191 44.0112C37.7191 37.2361 43.0663 31.7248 49.6389 31.7248ZM46.2986 92.184L6.29462 72.0217L15.4791 62.8373L56.012 82.4706L46.2986 92.184ZM62.3444 113.917V87.456L71.5853 96.6969C71.934 97.0457 72.3839 97.2756 72.8708 97.3538C73.3578 97.432 73.857 97.3546 74.2975 97.1326L102.656 82.8398V94.3909L62.3444 113.917ZM73.7012 92.184L63.988 82.4709L76.2334 76.5395C77.3985 75.9752 77.8853 74.5734 77.3211 73.4085C76.757 72.2437 75.3547 71.7576 74.1901 72.3208L60.0001 79.1938L20.377 60.0014L35.9892 52.4393C38.1766 55.8358 41.5706 59.5253 46.1573 63.4828C52.3729 68.8462 58.4901 72.7347 58.7474 72.8976C59.1224 73.1351 59.5572 73.2612 60.0011 73.2611C60.445 73.2612 60.8798 73.1351 61.2547 72.8976C61.5121 72.7347 67.6288 68.8462 73.8449 63.4828C78.4314 59.5256 81.8253 55.8361 84.0125 52.4397L99.6235 60.0014L90.6552 64.3455C89.4901 64.9099 89.0033 66.3117 89.5674 67.4765C90.132 68.6418 91.5343 69.1281 92.6984 68.5642L104.521 62.8375L113.706 72.022L73.7012 92.184Z" fill="black"/>
<path d="M84.9747 68.8467C84.5343 68.4086 83.939 68.1618 83.3179 68.1598C82.6966 68.1617 82.1013 68.4086 81.6608 68.8467C81.2249 69.2824 80.9741 69.8871 80.9741 70.5035C80.9741 71.1199 81.2247 71.7246 81.6608 72.1605C82.1014 72.5985 82.6967 72.8452 83.3179 72.8473C83.9343 72.8473 84.539 72.5967 84.9747 72.1605C85.4106 71.7246 85.6616 71.1199 85.6616 70.5035C85.6616 69.8871 85.4108 69.2824 84.9747 68.8467ZM38.4456 104.756C38.0097 104.321 37.405 104.07 36.7886 104.07C36.1722 104.07 35.5675 104.32 35.1315 104.756C34.6936 105.197 34.4469 105.792 34.4448 106.414C34.4448 107.03 34.6956 107.635 35.1315 108.07C35.5721 108.508 36.1674 108.755 36.7886 108.757C37.4073 108.757 38.0097 108.506 38.4456 108.07C38.8844 107.63 39.1313 107.035 39.1323 106.414C39.1323 105.797 38.8837 105.192 38.4456 104.756ZM60.0006 0C58.7064 0 57.6569 1.0493 57.6569 2.34375V12.9645C57.6569 14.2589 58.7064 15.3082 60.0006 15.3082C61.2948 15.3082 62.3444 14.2589 62.3444 12.9645V2.34375C62.3444 1.0493 61.2948 0 60.0006 0ZM82.1631 11.993C81.2476 11.0777 79.764 11.0777 78.8483 11.993L73.6532 17.1884C72.7379 18.1036 72.7379 19.5877 73.6532 20.5031C73.8706 20.7211 74.129 20.8939 74.4134 21.0117C74.6979 21.1295 75.0028 21.19 75.3107 21.1896C75.9107 21.1896 76.5102 20.9609 76.968 20.5031L82.1633 15.3077C83.0783 14.3925 83.0783 12.9084 82.1631 11.993ZM46.3478 17.1881L41.1526 11.993C40.2372 11.0777 38.7536 11.0777 37.8379 11.993C36.9226 12.9082 36.9226 14.3923 37.8379 15.3077L43.0333 20.5031C43.2506 20.7211 43.509 20.894 43.7934 21.0118C44.0778 21.1296 44.3827 21.19 44.6905 21.1896C44.9984 21.19 45.3033 21.1296 45.5877 21.0118C45.8721 20.894 46.1304 20.7211 46.3478 20.5031C47.263 19.5877 47.263 18.1036 46.3478 17.1881Z" fill="black"/>
</g>
<defs>
<clipPath id="clip0_40_2">
<rect width="120" height="120" fill="white"/>
</clipPath>
</defs>
</svg>
