<svg width="200" height="200" viewBox="0 0 200 200" fill="none" xmlns="http://www.w3.org/2000/svg">
<path fill-rule="evenodd" clip-rule="evenodd" d="M174.89 127.091L174.567 127.462C174.114 127.944 173.446 128.05 172.864 127.733C162.52 122.022 152.305 119.486 142.412 120.173V112.212C142.412 106.902 140.365 102.18 136.486 98.5528L131.702 94.0896C141.831 80.0748 152.154 69.5276 163.21 61.8876C163.834 61.4652 164.654 61.6012 165.106 62.2024C165.882 63.2476 165.386 63.8532 165.214 64.0796C157.369 73.73 153.576 82.5488 153.576 91.038C153.576 91.564 153.598 92.0856 153.619 92.5984C153.641 92.8096 153.641 93.0164 153.662 93.2212C153.684 93.286 153.684 93.3504 153.684 93.4128V93.456C154.848 105.083 164.136 114.406 172.412 122.692C173.231 123.528 174.071 124.36 174.869 125.182C175.386 125.71 175.408 126.546 174.89 127.091ZM137.305 156.217V112.212C137.305 108.296 135.861 104.958 132.995 102.288L100 71.4824L67.0052 102.288C64.1604 104.958 62.6948 108.296 62.6948 112.212V156.217C62.6948 160.174 65.9276 163.394 69.8712 163.394H84.246V137.856C84.246 129.168 91.3148 122.1 100 122.1C108.685 122.1 115.754 129.168 115.754 137.856V163.394H130.129C134.094 163.394 137.305 160.174 137.305 156.217ZM57.5872 112.212V120.173C47.7168 119.485 37.48 122.022 27.1352 127.733C26.5532 128.05 25.9068 127.944 25.454 127.461L25.1092 127.09C24.6136 126.545 24.6136 125.709 25.1308 125.181C25.9496 124.36 26.7688 123.532 27.6092 122.692C35.8632 114.405 45.1732 105.082 46.3156 93.4508C46.3156 93.438 46.3372 93.4248 46.3372 93.412V93.2204C46.3588 93.0136 46.3804 92.8088 46.3804 92.5976C46.4238 92.0786 46.4454 91.558 46.4452 91.0372C46.4452 82.5484 42.6308 73.7296 34.8076 64.0788C34.6136 63.8524 34.118 63.2468 34.8936 62.2016C35.3464 61.6004 36.1868 61.4624 36.79 61.8868C47.8672 69.5268 58.1904 80.074 68.3196 94.0888L63.5352 98.552C59.6564 102.18 57.5872 106.902 57.5872 112.212ZM31.0792 102.081C36.1652 102.081 40.4108 98.3288 41.1652 93.4388L41.23 93.0704V93.0144L41.2948 92.3096V91.8528C41.2948 86.2152 36.7044 81.6248 31.0796 81.6248C25.4332 81.6248 20.8428 86.2152 20.8428 91.8528C20.8424 97.4904 25.4328 102.081 31.0792 102.081ZM61.7684 48.9292C72.824 60.4676 79.8928 67.8748 84.462 79.0168L98.2548 66.1228C99.2464 65.2068 100.776 65.2068 101.746 66.1228L115.56 79.0168C120.108 67.8748 127.198 60.4676 138.254 48.9292C140.344 46.7268 142.543 44.4488 144.892 41.94C145.516 41.2804 145.516 40.272 144.913 39.5952L144.547 39.1792C143.965 38.5284 143.06 38.4032 142.327 38.8732L110.862 58.9332C104.074 63.2716 95.9492 63.2716 89.1388 58.9332L57.6956 38.8732C56.9628 38.4032 56.036 38.5328 55.4544 39.1792L55.088 39.5972C54.4844 40.272 54.506 41.2804 55.1096 41.94C57.3205 44.278 59.5401 46.6078 61.7684 48.9292ZM100 36.606C105.646 36.606 110.237 41.1944 110.237 46.832C110.237 52.2328 106.034 56.6656 100.711 57.0344C100.237 57.0536 99.7632 57.0536 99.2888 57.0344C93.9872 56.666 89.7848 52.2328 89.7848 46.832C89.7848 41.1944 94.3752 36.606 100 36.606ZM179.158 91.8524C179.158 86.2148 174.567 81.6244 168.942 81.6244C163.296 81.6244 158.706 86.2148 158.706 91.8524C158.706 92.0052 158.706 92.1584 158.727 92.3092C158.749 92.544 158.749 92.7792 158.77 93.014C158.77 93.0336 158.792 93.0508 158.792 93.068C158.792 93.1932 158.814 93.316 158.835 93.4388C159.59 98.3288 163.835 102.081 168.943 102.081C174.567 102.081 179.158 97.4904 179.158 91.8524ZM176.011 119.082C172.132 115.182 167.994 111.031 164.74 106.594C166.106 106.986 167.521 107.186 168.942 107.186C177.39 107.186 184.265 100.305 184.265 91.8528C184.265 83.4004 177.39 76.5192 168.942 76.5192C166.522 76.5186 164.136 77.0925 161.981 78.1936C163.705 74.7172 166.098 71.0988 169.179 67.3016C171.097 64.9224 171.119 61.722 169.201 59.1552C168.204 57.8012 166.718 56.89 165.06 56.6158C163.401 56.3417 161.701 56.7263 160.322 57.6876C148.9 65.5668 138.296 76.3424 127.93 90.5768L119.59 82.7708C123.749 71.4608 130.71 64.1828 141.938 52.4612C144.17 50.1251 146.397 47.7847 148.619 45.44C151.054 42.8388 151.119 38.8648 148.727 36.1968L148.361 35.7808C147.281 34.5625 145.802 33.7704 144.189 33.5475C142.577 33.3246 140.938 33.6855 139.568 34.5652L114.935 50.276C115.194 49.1684 115.344 48.0176 115.344 46.832C115.344 38.3796 108.47 31.4984 100 31.4984C91.552 31.4984 84.6772 38.3796 84.6772 46.832C84.6772 48.0172 84.8064 49.168 85.0652 50.276L60.432 34.5652C57.5872 32.7508 53.902 33.2612 51.6392 35.7808L51.2728 36.1968C48.902 38.8648 48.9452 42.8388 51.402 45.44C53.7728 47.9636 55.9708 50.2504 58.0828 52.4612C69.3112 64.1832 76.272 71.4608 80.4316 82.7708L72.0696 90.5768C61.7252 76.3424 51.122 65.5668 39.6996 57.6876C36.8116 55.692 32.9112 56.3364 30.7988 59.1552C28.8808 61.722 28.9024 64.9224 30.842 67.3016C33.9236 71.0988 36.316 74.7172 38.04 78.1936C35.8848 77.0924 33.499 76.5185 31.0788 76.5192C22.6308 76.5192 15.7344 83.4004 15.7344 91.8528C15.7344 100.305 22.6308 107.186 31.0788 107.186C32.5228 107.186 33.9452 106.975 35.2812 106.594C32.0272 111.031 27.8892 115.184 23.9884 119.087C23.148 119.934 22.3076 120.772 21.4884 121.6C19.0532 124.074 19.01 128.013 21.3592 130.561L21.704 130.936C22.9756 132.296 24.6996 133.015 26.4668 133.015C27.5671 133.015 28.6495 132.736 29.6132 132.205C39.2036 126.91 48.6 124.591 57.5868 125.293V156.217C57.5868 162.988 63.104 168.501 69.8712 168.501H86.8104C88.2112 168.501 89.3536 167.357 89.3536 165.947V137.855C89.3536 131.982 94.138 127.204 100 127.204C105.884 127.204 110.668 131.982 110.668 137.855V165.947C110.668 167.357 111.81 168.501 113.211 168.501H130.129C136.896 168.501 142.413 162.988 142.413 156.217V125.293C151.421 124.591 160.818 126.91 170.408 132.205C171.365 132.733 172.439 133.012 173.532 133.015C175.3 133.015 177.045 132.296 178.295 130.936L178.64 130.561C181.011 128.014 180.946 124.074 178.511 121.6C177.692 120.772 176.873 119.934 176.011 119.082Z" fill="white"/>
</svg>
