<svg width="200" height="200" viewBox="0 0 200 200" fill="none" xmlns="http://www.w3.org/2000/svg">
<path d="M121.651 49.7094C121.397 49.4555 121.196 49.1541 121.058 48.8224C120.921 48.4907 120.85 48.1352 120.85 47.7762C120.85 47.4171 120.921 47.0616 121.058 46.7299C121.196 46.3982 121.397 46.0968 121.651 45.843L123.082 44.4125C123.336 44.1586 123.637 43.9572 123.969 43.8197C124.3 43.6823 124.656 43.6116 125.015 43.6116C125.374 43.6116 125.729 43.6823 126.061 43.8197C126.393 43.9572 126.694 44.1586 126.948 44.4125C127.202 44.6663 127.403 44.9677 127.541 45.2994C127.678 45.6311 127.749 45.9867 127.749 46.3457C127.749 46.7047 127.678 47.0603 127.541 47.392C127.403 47.7237 127.202 48.0251 126.948 48.2789L125.518 49.7094C124.984 50.2434 124.284 50.5106 123.584 50.5106C122.885 50.5106 122.185 50.2434 121.651 49.7094ZM125.518 93.0039C125.264 92.75 124.962 92.5486 124.631 92.4112C124.299 92.2737 123.943 92.203 123.584 92.203C123.225 92.203 122.87 92.2737 122.538 92.4112C122.206 92.5486 121.905 92.75 121.651 93.0039C121.397 93.2578 121.196 93.5591 121.058 93.8908C120.921 94.2225 120.85 94.5781 120.85 94.9371C120.85 95.2962 120.921 95.6517 121.058 95.9834C121.196 96.3151 121.397 96.6165 121.651 96.8703L123.082 98.3008C123.615 98.8348 124.315 99.102 125.015 99.102C125.714 99.102 126.414 98.8348 126.948 98.3008C127.202 98.0469 127.403 97.7456 127.541 97.4139C127.678 97.0822 127.749 96.7266 127.749 96.3676C127.749 96.0085 127.678 95.653 127.541 95.3213C127.403 94.9896 127.202 94.6882 126.948 94.4344L125.518 93.0039ZM133.352 74.091H135.375C136.1 74.091 136.796 73.8029 137.309 73.2901C137.821 72.7773 138.109 72.0818 138.109 71.3566C138.109 70.6314 137.821 69.9359 137.309 69.4231C136.796 68.9104 136.1 68.6223 135.375 68.6223H133.352C132.626 68.6223 131.931 68.9104 131.418 69.4231C130.905 69.9359 130.617 70.6314 130.617 71.3566C130.617 72.0818 130.905 72.7773 131.418 73.2901C131.931 73.8029 132.626 74.091 133.352 74.091ZM66.6563 68.6223H64.6328C63.9076 68.6223 63.2121 68.9104 62.6994 69.4231C62.1866 69.9359 61.8985 70.6314 61.8985 71.3566C61.8985 72.0818 62.1866 72.7773 62.6994 73.2901C63.2121 73.8029 63.9076 74.091 64.6328 74.091H66.6563C67.3815 74.091 68.077 73.8029 68.5898 73.2901C69.1026 72.7773 69.3907 72.0818 69.3907 71.3566C69.3907 70.6314 69.1026 69.9359 68.5898 69.4231C68.077 68.9104 67.3815 68.6223 66.6563 68.6223ZM74.4903 93.0039L73.0598 94.4344C72.8059 94.6882 72.6045 94.9896 72.467 95.3213C72.3296 95.653 72.2589 96.0085 72.2589 96.3676C72.2589 96.7266 72.3296 97.0822 72.467 97.4139C72.6045 97.7456 72.8059 98.0469 73.0598 98.3008C73.5934 98.8348 74.2934 99.102 74.993 99.102C75.6926 99.102 76.3926 98.8348 76.9262 98.3008L78.3567 96.8703C78.6106 96.6165 78.812 96.3151 78.9494 95.9834C79.0869 95.6517 79.1576 95.2962 79.1576 94.9371C79.1576 94.5781 79.0869 94.2225 78.9494 93.8908C78.812 93.5591 78.6106 93.2578 78.3567 93.0039C78.1028 92.75 77.8014 92.5486 77.4697 92.4112C77.138 92.2737 76.7825 92.203 76.4235 92.203C76.0644 92.203 75.7089 92.2737 75.3772 92.4112C75.0455 92.5486 74.7441 92.75 74.4903 93.0039ZM100.004 40.7434C100.729 40.7434 101.425 40.4553 101.937 39.9425C102.45 39.4297 102.738 38.7342 102.738 38.009V35.9855C102.738 35.2603 102.45 34.5648 101.937 34.0521C101.425 33.5393 100.729 33.2512 100.004 33.2512C99.2787 33.2512 98.5832 33.5393 98.0704 34.0521C97.5577 34.5648 97.2696 35.2603 97.2696 35.9855V38.009C97.2696 38.7342 97.5577 39.4297 98.0704 39.9425C98.5832 40.4553 99.2787 40.7434 100.004 40.7434ZM74.4903 49.7094C75.0239 50.2434 75.7239 50.5106 76.4235 50.5106C77.1231 50.5106 77.8231 50.2434 78.3567 49.7094C78.6106 49.4555 78.812 49.1541 78.9494 48.8224C79.0869 48.4907 79.1576 48.1352 79.1576 47.7762C79.1576 47.4171 79.0869 47.0616 78.9494 46.7299C78.812 46.3982 78.6106 46.0968 78.3567 45.843L76.9262 44.4125C76.6724 44.1586 76.371 43.9572 76.0393 43.8197C75.7076 43.6823 75.352 43.6116 74.993 43.6116C74.634 43.6116 74.2784 43.6823 73.9467 43.8197C73.615 43.9572 73.3136 44.1586 73.0598 44.4125C72.8059 44.6663 72.6045 44.9677 72.467 45.2994C72.3296 45.6311 72.2589 45.9867 72.2589 46.3457C72.2589 46.7047 72.3296 47.0603 72.467 47.392C72.6045 47.7237 72.8059 48.0251 73.0598 48.2789L74.4903 49.7094ZM140.852 182.787C140.859 182.868 140.863 182.95 140.863 183.032V195.703C140.863 196.428 140.575 197.124 140.062 197.637C139.549 198.149 138.854 198.438 138.129 198.438H61.8793C61.1541 198.438 60.4586 198.149 59.9458 197.637C59.433 197.124 59.145 196.428 59.145 195.703V183.032C59.145 182.95 59.1489 182.868 59.1559 182.787C60.0707 172.631 64.725 163.224 72.2618 156.299C76.8277 152.098 82.2892 148.991 88.2332 147.213C82.6871 143.436 79.0371 137.072 79.0371 129.871C79.0371 129.699 79.0461 129.529 79.05 129.358L70.1133 125.651L63.2903 130.226C62.7643 130.579 62.1321 130.738 61.5017 130.677C60.8713 130.615 60.2818 130.337 59.834 129.889L41.4711 111.526C41.0232 111.078 40.7446 110.489 40.683 109.858C40.6215 109.228 40.7807 108.596 41.1336 108.07L45.7086 101.246L40.4676 88.6106L32.4149 87.0234C31.7934 86.9009 31.2338 86.5664 30.8315 86.0771C30.4293 85.5878 30.2094 84.9741 30.2094 84.3406V58.3719C30.2093 57.7385 30.4292 57.1247 30.8315 56.6355C31.2337 56.1462 31.7934 55.8118 32.4149 55.6895L40.4676 54.102L45.7086 41.466L41.1336 34.643C40.7809 34.1169 40.6217 33.4847 40.6833 32.8544C40.7448 32.224 41.0233 31.6346 41.4711 31.1867L59.834 12.8238C60.2818 12.3759 60.8713 12.0973 61.5017 12.0357C62.1321 11.9742 62.7643 12.1335 63.2903 12.4863L70.1133 17.0617L82.7493 11.8203L84.3368 3.76758C84.4591 3.14612 84.7935 2.58644 85.2828 2.18418C85.772 1.78191 86.3858 1.56203 87.0192 1.56211H112.988C113.621 1.5622 114.235 1.78219 114.724 2.18451C115.214 2.58682 115.548 3.14651 115.67 3.76797L117.258 11.8203L129.894 17.0617L136.717 12.4863C137.243 12.1334 137.875 11.9741 138.505 12.0356C139.136 12.0972 139.725 12.3758 140.173 12.8238L158.536 31.1867C158.984 31.6345 159.263 32.224 159.324 32.8544C159.386 33.4848 159.226 34.117 158.873 34.643L154.298 41.466L159.539 54.102L167.592 55.6895C168.214 55.812 168.773 56.1464 169.175 56.6356C169.578 57.1248 169.798 57.7385 169.798 58.3719V84.3406C169.798 84.974 169.578 85.5878 169.176 86.077C168.773 86.5663 168.214 86.9007 167.592 87.0231L159.539 88.6106L154.298 101.246L158.873 108.069C159.226 108.595 159.386 109.227 159.324 109.858C159.263 110.488 158.984 111.077 158.536 111.525L140.173 129.889C139.919 130.143 139.618 130.345 139.286 130.482C138.954 130.619 138.598 130.69 138.239 130.69C137.697 130.69 137.167 130.529 136.717 130.226L129.894 125.651L120.957 129.358C120.961 129.529 120.97 129.699 120.97 129.871C120.97 137.072 117.32 143.436 111.774 147.213C117.718 148.991 123.179 152.098 127.745 156.298C135.282 163.223 139.936 172.63 140.851 182.786L140.852 182.787ZM101.211 150.99C100.809 150.977 100.409 150.962 100.004 150.962C99.6157 150.962 99.2313 150.977 98.8465 150.989L96.1067 178.389L100.029 184.003L103.951 178.389L101.211 150.99ZM79.9356 123.805C81.027 120.202 83.0633 117.007 85.7559 114.509C67.3684 108.468 54.5758 91.2035 54.5758 71.3566C54.5758 46.3074 74.9547 25.9285 100.004 25.9285C125.053 25.9285 145.432 46.3074 145.432 71.3566C145.432 91.2035 132.639 108.467 114.252 114.508C116.945 117.007 118.981 120.202 120.072 123.805L129.153 120.038C129.569 119.865 130.021 119.798 130.47 119.843C130.918 119.887 131.349 120.042 131.723 120.293L137.896 124.432L153.08 109.248L148.94 103.075C148.689 102.701 148.534 102.271 148.49 101.822C148.446 101.374 148.513 100.921 148.686 100.505L155.049 85.1641C155.222 84.7482 155.494 84.3814 155.843 84.0961C156.191 83.8109 156.604 83.616 157.046 83.5289L164.329 82.0926V60.6195L157.046 59.1832C156.604 59.0962 156.191 58.9014 155.843 58.6162C155.494 58.3309 155.222 57.964 155.049 57.5481L148.686 42.207C148.513 41.7908 148.446 41.3383 148.49 40.8899C148.535 40.4415 148.689 40.011 148.94 39.6367L153.08 33.4637L137.896 18.2797L131.723 22.4195C131.349 22.6706 130.918 22.8252 130.47 22.8696C130.021 22.914 129.569 22.8469 129.153 22.6742L113.812 16.3105C113.396 16.138 113.029 15.8655 112.744 15.5172C112.459 15.169 112.264 14.7557 112.176 14.3141L110.74 7.03047H89.2672L87.8309 14.3137C87.7439 14.7555 87.5491 15.1689 87.2639 15.5173C86.9786 15.8656 86.6117 16.1381 86.1957 16.3105L70.8547 22.6742C70.4384 22.8467 69.986 22.9137 69.5376 22.8693C69.0892 22.8249 68.6587 22.6704 68.2844 22.4195L62.1114 18.2797L46.9274 33.4637L51.0668 39.6367C51.3179 40.0109 51.4726 40.4414 51.517 40.8899C51.5614 41.3383 51.4943 41.7908 51.3215 42.207L44.9582 57.5481C44.7857 57.9639 44.5132 58.3308 44.1649 58.6161C43.8165 58.9013 43.4031 59.0961 42.9614 59.1832L35.6778 60.6195V82.0926L42.9614 83.5285C43.4032 83.6156 43.8166 83.8104 44.165 84.0958C44.5134 84.3811 44.7858 84.7481 44.9582 85.1641L51.3215 100.505C51.4941 100.921 51.5612 101.374 51.5167 101.822C51.4723 102.271 51.3178 102.701 51.0668 103.075L46.9274 109.248L62.1114 124.432L68.2844 120.293C68.6587 120.042 69.0892 119.887 69.5376 119.843C69.986 119.798 70.4385 119.865 70.8547 120.038L79.9352 123.805L79.9356 123.805ZM102.738 104.705V106.728C102.738 107.168 102.632 107.602 102.428 107.993C102.224 108.383 101.929 108.718 101.568 108.97C103.787 109.132 105.966 109.649 108.022 110.502C126.577 106.728 139.963 90.398 139.963 71.357C139.963 49.3234 122.038 31.3977 100.004 31.3977C77.9704 31.3977 60.0446 49.3234 60.0446 71.357C60.0446 90.398 73.4313 106.728 91.9856 110.502C94.0415 109.649 96.2209 109.132 98.4407 108.97C98.0792 108.718 97.7839 108.383 97.58 107.993C97.3762 107.602 97.2698 107.168 97.27 106.728V104.705C97.27 103.979 97.558 103.284 98.0708 102.771C98.5836 102.258 99.2791 101.97 100.004 101.97C100.73 101.97 101.425 102.258 101.938 102.771C102.451 103.284 102.738 103.979 102.738 104.705ZM100.004 145.37C108.55 145.37 115.502 138.418 115.502 129.872C115.502 121.326 108.55 114.374 100.004 114.374C91.4582 114.374 84.5059 121.326 84.5059 129.872C84.5059 138.418 91.4582 145.37 100.004 145.37ZM135.394 183.158C133.893 167.093 122.076 154.495 106.767 151.593L109.493 178.852C109.558 179.503 109.388 180.155 109.014 180.69L102.27 190.343C102.018 190.704 101.682 190.998 101.292 191.202C100.902 191.405 100.469 191.511 100.029 191.511C99.5886 191.511 99.1551 191.405 98.7649 191.202C98.3747 190.998 98.0393 190.704 97.7871 190.343L91.0434 180.69C90.6691 180.155 90.499 179.503 90.5641 178.852L93.2907 151.584C77.9567 154.468 66.1157 167.075 64.6133 183.157V192.969H135.393V183.157L135.394 183.158ZM121.47 63.9242L96.618 88.7758C95.3559 90.0383 93.7453 90.7074 92.0118 90.7074C91.7125 90.7074 91.4106 90.6875 91.1051 90.6477C89.0301 90.3742 87.3106 89.2254 86.2641 87.4133L77.4297 72.1109C75.5043 68.7762 76.6512 64.4965 79.986 62.5707C83.3215 60.6457 87.6008 61.7926 89.5262 65.127L93.5485 72.093L111.593 54.0481C114.316 51.325 118.747 51.3254 121.47 54.0481C124.193 56.7715 124.193 61.2016 121.47 63.9246V63.9242ZM117.604 57.9145C117.022 57.3348 116.041 57.3344 115.46 57.9145L94.8954 78.4793C94.5987 78.7757 94.2379 78.9999 93.8408 79.1346C93.4438 79.2693 93.021 79.3109 92.6053 79.2562C92.1896 79.2015 91.792 79.0519 91.4433 78.8191C91.0945 78.5862 90.804 78.2763 90.5942 77.9133L84.7907 67.8613C84.3801 67.15 83.4317 66.8949 82.7207 67.3066C82.0098 67.7176 81.7555 68.6656 82.1664 69.3766L91.0008 84.6789C91.193 85.0121 91.4375 85.1754 91.8196 85.2254C92.2004 85.2773 92.4793 85.1816 92.752 84.909L117.604 60.0574C118.184 59.4766 118.184 58.4953 117.604 57.9145H117.604ZM39.6293 172.5C30.9399 169.088 24.9168 160.864 24.2852 151.55C24.047 148.077 24.5595 144.594 25.7879 141.338C27.0163 138.081 28.9318 135.127 31.4039 132.677L30.5262 137.54C30.4624 137.894 30.4689 138.256 30.5452 138.607C30.6215 138.958 30.7662 139.29 30.971 139.585C31.1758 139.88 31.4367 140.132 31.7388 140.326C32.0409 140.52 32.3783 140.653 32.7317 140.717C34.2164 140.988 35.6395 139.997 35.9082 138.511L38.0188 126.818C38.1715 125.974 37.918 125.106 37.3352 124.476C36.7524 123.846 35.9032 123.529 35.0535 123.612L22.393 124.889C21.6715 124.962 21.0085 125.319 20.5497 125.88C20.0909 126.442 19.874 127.163 19.9465 127.884C20.0981 129.388 21.4453 130.477 22.9414 130.331L26.4207 129.98C23.7466 132.94 21.6963 136.408 20.392 140.177C19.0877 143.947 18.5562 147.941 18.8293 151.92C19.6032 163.333 26.9832 173.409 37.6305 177.591C37.9586 177.72 38.2965 177.781 38.6293 177.781C39.2666 177.781 39.8841 177.559 40.375 177.153C40.866 176.747 41.1996 176.182 41.3182 175.556C41.4368 174.929 41.333 174.281 41.0247 173.724C40.7164 173.166 40.223 172.733 39.6297 172.501L39.6293 172.5ZM180.687 153.176C182.893 141.952 178.373 130.309 169.171 123.514C168.587 123.099 167.863 122.93 167.155 123.043C166.448 123.157 165.813 123.543 165.387 124.119C164.962 124.696 164.779 125.416 164.879 126.126C164.979 126.835 165.354 127.477 165.922 127.913C173.433 133.459 177.122 142.961 175.322 152.121C174.653 155.537 173.256 158.769 171.227 161.597C169.198 164.424 166.583 166.782 163.561 168.509L165.668 164.039C165.966 163.384 165.995 162.638 165.747 161.963C165.5 161.288 164.996 160.737 164.345 160.43C163.694 160.124 162.949 160.086 162.271 160.325C161.592 160.564 161.035 161.061 160.721 161.708L155.656 172.456C155.475 172.839 155.386 173.259 155.395 173.682C155.405 174.106 155.512 174.521 155.709 174.896C155.907 175.27 156.188 175.594 156.532 175.841C156.876 176.089 157.272 176.253 157.69 176.32L170.25 178.363C170.957 178.46 171.674 178.277 172.247 177.853C172.821 177.429 173.207 176.797 173.321 176.093C173.436 175.388 173.271 174.667 172.861 174.083C172.451 173.499 171.829 173.098 171.128 172.966L167.676 172.404C174.382 168.066 179.116 161.168 180.688 153.176H180.687Z" fill="white"/>
</svg>
