<svg width="200" height="200" viewBox="0 0 200 200" fill="none" xmlns="http://www.w3.org/2000/svg">
<path d="M172.972 92.3823C178.829 88.2667 182.707 81.4207 182.707 73.704C182.707 61.0803 172.497 50.8706 159.873 50.8706C147.25 50.8706 137.04 61.0803 137.04 73.704C137.04 81.4207 140.879 88.2667 146.775 92.3823C141.749 94.1235 137.159 96.8144 133.281 100.297C127.938 95.7459 121.646 92.2636 114.761 90.2058C123.11 85.1405 128.73 75.9201 128.73 65.4333C128.73 49.446 115.789 36.5057 99.8021 36.5057C83.8148 36.5057 70.8746 49.4856 70.8746 65.4333C70.8746 75.9201 76.4543 85.1405 84.8437 90.2058C78.0372 92.2636 71.8243 95.7064 66.5216 100.178C62.6435 96.7748 58.1322 94.1235 53.1856 92.4218C59.0423 88.3063 62.9205 81.4602 62.9205 73.7436C62.9205 61.1199 52.7107 50.9102 40.0871 50.9102C27.4634 50.9102 17.2537 61.1199 17.2537 73.7436C17.2537 81.4602 21.0922 88.3063 26.9885 92.4218C11.2782 97.8433 0 112.762 0 130.293V132.905C0 132.984 0.0791452 133.063 0.15829 133.063H48.5556C48.2786 135.239 48.1203 137.495 48.1203 139.751V142.442C48.1203 154.076 57.5386 163.494 69.1729 163.494H130.51C142.145 163.494 151.563 154.076 151.563 142.442V139.751C151.563 137.495 151.405 135.239 151.128 133.063H199.842C199.921 133.063 200 132.984 200 132.905V130.293C199.921 112.723 188.682 97.8037 172.972 92.3823ZM143.372 73.6644C143.372 64.5627 150.772 57.1626 159.873 57.1626C168.975 57.1626 176.375 64.5627 176.375 73.6644C176.375 82.6474 169.133 89.9683 160.19 90.1662H159.557C150.574 90.0079 143.372 82.687 143.372 73.6644ZM77.127 65.4333C77.127 52.9679 87.2576 42.8374 99.723 42.8374C112.188 42.8374 122.319 52.9679 122.319 65.4333C122.319 77.4634 112.861 87.317 101.029 87.9897H98.4171C86.5849 87.317 77.127 77.4634 77.127 65.4333ZM23.4666 73.6644C23.4666 64.5627 30.8666 57.1626 39.9683 57.1626C49.07 57.1626 56.4701 64.5627 56.4701 73.6644C56.4701 82.6474 49.2283 89.9683 40.2849 90.1662H39.6518C30.7083 90.0079 23.4666 82.687 23.4666 73.6644ZM49.6636 126.692H6.41076C8.19153 109.834 22.4377 96.6165 39.7309 96.4978H40.2058C48.4369 96.5374 55.9557 99.5845 61.7729 104.531C56.0744 110.704 51.8401 118.302 49.6636 126.692ZM145.152 142.442C145.152 150.554 138.544 157.163 130.431 157.163H69.0938C60.9814 157.163 54.3728 150.554 54.3728 142.442V139.751C54.3728 115.176 74.0008 95.0732 98.4171 94.3609C98.8524 94.4005 99.3273 94.4005 99.7626 94.4005C100.198 94.4005 100.673 94.4005 101.108 94.3609C125.524 95.0732 145.152 115.176 145.152 139.751V142.442ZM149.862 126.692C147.685 118.342 143.53 110.863 137.871 104.689C143.728 99.6241 151.326 96.577 159.636 96.4978H160.111C177.404 96.6165 191.65 109.834 193.431 126.692H149.862Z" fill="white"/>
</svg>
