<svg width="194" height="194" viewBox="0 0 194 194" fill="none" xmlns="http://www.w3.org/2000/svg">
<path d="M190.114 110.589C189.516 110.028 188.916 109.468 188.314 108.911C186.203 106.952 185.144 105.97 184.616 105.055C184.087 104.14 183.766 102.731 183.125 99.9234C182.962 99.2106 182.782 98.4164 182.573 97.5254C181.4 92.5164 177.16 88.9594 172.024 88.6738C171.111 88.6231 170.297 88.5828 169.566 88.5461C166.691 88.4027 165.247 88.3309 164.254 87.9695C163.262 87.6082 162.11 86.7352 159.815 84.9965C159.232 84.5547 158.582 84.0629 157.85 83.5148C153.732 80.432 148.198 80.4316 144.08 83.5148C143.423 84.0066 142.768 84.5005 142.115 84.9965C139.82 86.7356 138.668 87.6082 137.675 87.9695C136.682 88.3309 135.239 88.4027 132.363 88.5461C131.633 88.5824 130.819 88.6231 129.906 88.6738C124.769 88.9594 120.53 92.5164 119.357 97.525C119.148 98.416 118.967 99.2102 118.804 99.9234C118.163 102.731 117.842 104.14 117.314 105.055C117.11 105.407 116.826 105.771 116.435 106.196C107.945 92.572 94.5748 82.7026 79.0543 78.6031C89.3613 72.9047 96.359 61.9238 96.359 49.3359C96.359 47.9211 96.2598 46.5039 96.0812 45.0992C96.4467 44.5755 96.6423 43.9522 96.6418 43.3137V21.2887L103.028 19.5922V36.4113L99.4496 38.477C98.9746 38.7512 98.5801 39.1457 98.3058 39.6208C98.0315 40.0958 97.8871 40.6347 97.8871 41.1832V56.8621C97.8872 57.4427 98.0491 58.0118 98.3546 58.5056C98.6601 58.9994 99.097 59.3983 99.6165 59.6576C100.136 59.917 100.717 60.0265 101.296 59.9739C101.874 59.9213 102.426 59.7086 102.89 59.3598L106.153 56.9063L109.415 59.3598C109.879 59.7089 110.431 59.9218 111.01 59.9746C111.588 60.0274 112.17 59.9179 112.689 59.6585C113.209 59.3991 113.646 59.0001 113.951 58.5061C114.257 58.0122 114.419 57.4429 114.418 56.8621V41.1836C114.418 40.6351 114.274 40.0962 114 39.6211C113.725 39.1461 113.331 38.7516 112.856 38.4773L109.278 36.4117V17.7988C109.802 17.4812 110.221 17.0165 110.482 16.4626C110.744 15.9087 110.837 15.29 110.75 14.6836C110.663 14.0771 110.4 13.5097 109.993 13.0518C109.585 12.594 109.053 12.266 108.461 12.1086L63.7394 0.22969C63.2138 0.0902458 62.6608 0.0902458 62.1352 0.22969L17.4148 12.1086C16.0453 12.4723 15.0922 13.7117 15.0922 15.1289C15.0922 16.5461 16.0453 17.7855 17.4148 18.1492L29.2332 21.2887V43.3141C29.2332 43.9727 29.4387 44.5902 29.7937 45.0996C29.6121 46.5046 29.5193 47.9197 29.516 49.3363C29.516 61.9211 36.5102 72.8992 46.8129 78.5988C37.089 81.1667 28.1228 86.0291 20.6664 92.7781C9.14882 103.194 1.8996 117.398 0.254292 132.773C0.207782 133.209 0.253476 133.65 0.388408 134.067C0.52334 134.484 0.744492 134.868 1.0375 135.194C1.33051 135.52 1.68883 135.781 2.08918 135.959C2.48952 136.138 2.92296 136.23 3.36132 136.23L38.5738 136.23V188.189C38.5738 191.324 41.1242 193.875 44.2594 193.875H174.815C177.95 193.875 180.5 191.325 180.5 188.189V176.487L184.536 177.193C185.964 177.443 187.395 176.883 188.274 175.736C189.154 174.588 189.321 173.059 188.71 171.747L179.674 152.339C180.003 152.2 180.354 152.052 180.735 151.891C181.409 151.607 182.16 151.291 183.001 150.93C187.73 148.905 190.497 144.112 189.886 139.005C189.788 138.191 189.688 137.377 189.585 136.563C189.227 133.706 189.047 132.271 189.23 131.231C189.414 130.191 190.073 128.904 191.387 126.342C191.721 125.691 192.093 124.966 192.505 124.15C194.826 119.559 193.865 114.109 190.114 110.589ZM127.449 155.989C127.907 156.647 128.447 157.484 129.143 158.561C129.539 159.175 129.981 159.86 130.482 160.625C132.514 163.734 135.79 165.584 139.307 165.813L134.313 176.538L130.846 170.572C130.525 170.02 130.043 169.579 129.463 169.309C128.884 169.04 128.236 168.954 127.607 169.064L120.809 170.252L127.449 155.989ZM62.9371 88.5715L55.9773 83.1809C58.2832 82.8999 60.604 82.7585 62.9269 82.7574L62.9375 82.7578H62.9465C65.2859 82.7582 67.6012 82.9094 69.8859 83.1898L62.9371 88.5715ZM58.448 93L52.0437 100.593L43.868 86.0231C45.1736 85.5594 46.4959 85.1439 47.832 84.7774L58.448 93ZM78.0219 84.793C79.3637 85.1621 80.6883 85.5797 81.9937 86.0445L73.8301 100.593L67.4258 93L78.0219 84.793ZM108.168 50.6027L108.03 50.4992C107.489 50.0921 106.829 49.872 106.152 49.872C105.474 49.872 104.815 50.0921 104.274 50.4992L104.136 50.6027V42.9875L106.152 41.8238L108.168 42.9875V50.6027ZM62.9371 6.48321L95.4848 15.1289L62.9371 23.7746L30.3894 15.1289L62.9371 6.48321ZM62.1352 30.0285C62.6609 30.1684 63.2141 30.1684 63.7398 30.0285L90.3918 22.9488V40.7121C86.2973 41.4723 82.8332 42.1418 79.9547 42.698C62.9379 45.9879 62.9379 45.9879 45.9207 42.698C43.0422 42.1418 39.5781 41.4719 35.4836 40.7121V22.9488L62.1352 30.0285ZM35.766 49.3363C35.766 48.6043 35.8027 47.8715 35.8617 47.1406C38.8209 47.6962 41.7783 48.261 44.734 48.8348C53.7508 50.5777 58.3437 51.4492 62.9371 51.4492C67.5305 51.4492 72.1238 50.5777 81.1402 48.8348C84.0959 48.261 87.0533 47.6962 90.0125 47.1406C90.0715 47.8715 90.1082 48.6039 90.1082 49.3363C90.1082 64.3156 77.9242 76.5027 62.9461 76.5074H62.9269C47.9492 76.5016 35.766 64.3152 35.766 49.3363ZM38.5742 117.387V129.98L6.94492 129.98C10.0656 111.477 21.9644 96.2672 38.0641 88.4516L48.8 107.584C49.0471 108.024 49.3973 108.398 49.8205 108.674C50.2437 108.949 50.7273 109.118 51.23 109.166C51.7327 109.213 52.2394 109.138 52.7069 108.947C53.1743 108.757 53.5885 108.455 53.9141 108.069L62.9371 97.3707L71.9602 108.069C72.2856 108.455 72.6998 108.757 73.1673 108.948C73.6347 109.139 74.1415 109.214 74.6442 109.166C75.147 109.118 75.6306 108.949 76.0538 108.674C76.477 108.398 76.8272 108.024 77.0742 107.584L87.7922 88.4836C97.7865 93.349 106.133 101.04 111.798 110.604C111.437 110.948 111.097 111.315 110.782 111.702H44.2594C41.1246 111.703 38.5742 114.253 38.5742 117.387ZM44.8242 187.625V117.953H108.215C108.034 120.029 108.421 122.169 109.423 124.15C109.793 124.881 110.166 125.612 110.541 126.341C111.166 127.561 111.642 128.489 111.99 129.242H59.9305C59.1017 129.242 58.3068 129.571 57.7208 130.157C57.1347 130.744 56.8055 131.538 56.8055 132.367C56.8055 133.196 57.1347 133.991 57.7208 134.577C58.3068 135.163 59.1017 135.492 59.9305 135.492H112.476C112.435 135.826 112.391 136.18 112.343 136.562C112.252 137.288 112.15 138.096 112.042 139.005C111.535 143.244 113.361 147.261 116.698 149.664H59.9305C59.1017 149.664 58.3068 149.993 57.7208 150.579C57.1347 151.165 56.8055 151.96 56.8055 152.789C56.8055 153.617 57.1347 154.412 57.7208 154.998C58.3068 155.584 59.1017 155.914 59.9305 155.914H120.59L113.992 170.085H59.9305C59.1017 170.085 58.3068 170.414 57.7208 171C57.1347 171.586 56.8055 172.381 56.8055 173.21C56.8055 174.039 57.1347 174.833 57.7208 175.419C58.3068 176.006 59.1017 176.335 59.9305 176.335H114.238C114.669 176.7 115.175 176.966 115.72 177.114C116.265 177.263 116.836 177.289 117.392 177.192L126.537 175.594L131.201 183.621C131.555 184.233 132.071 184.737 132.692 185.075C133.313 185.414 134.016 185.576 134.722 185.542C135.429 185.511 136.114 185.287 136.702 184.893C137.289 184.499 137.757 183.951 138.055 183.309L146.923 164.262C148.931 163.648 150.066 163.339 150.964 163.339C151.862 163.339 152.997 163.649 155.005 164.262L163.873 183.309C164.183 183.979 164.679 184.545 165.301 184.942C165.923 185.339 166.646 185.548 167.384 185.546C168.062 185.547 168.727 185.37 169.314 185.032C169.901 184.693 170.389 184.207 170.728 183.621L174.25 177.559V187.625H44.8242ZM174.321 169.063C173.692 168.953 173.044 169.039 172.465 169.309C171.886 169.578 171.403 170.019 171.082 170.571L167.615 176.537L162.618 165.804C166.135 165.575 169.413 163.734 171.446 160.625C171.947 159.859 172.389 159.175 172.786 158.561C173.481 157.484 174.021 156.647 174.479 155.988L181.119 170.25L174.321 169.063ZM186.928 121.33C186.563 122.051 186.196 122.771 185.826 123.489C182.625 129.732 182.511 130.379 183.384 137.34C183.474 138.055 183.573 138.851 183.68 139.746C183.963 142.112 182.731 144.246 180.54 145.185C179.711 145.539 178.972 145.851 178.308 146.131C171.844 148.855 171.34 149.278 167.535 155.171C167.144 155.777 166.709 156.45 166.215 157.205C164.911 159.199 162.594 160.043 160.314 159.353C159.451 159.092 158.684 158.855 157.996 158.643C151.293 156.575 150.636 156.575 143.933 158.643C143.244 158.855 142.477 159.092 141.614 159.353C139.334 160.043 137.017 159.199 135.713 157.205C135.271 156.528 134.831 155.85 134.393 155.171C130.588 149.278 130.085 148.855 123.62 146.131C122.956 145.851 122.217 145.539 121.388 145.185C119.198 144.247 117.966 142.112 118.248 139.746C118.355 138.851 118.455 138.055 118.545 137.34C119.418 130.379 119.303 129.732 116.102 123.489C115.773 122.848 115.407 122.134 115.001 121.33C113.926 119.204 114.354 116.776 116.091 115.146C116.681 114.593 117.272 114.042 117.865 113.493C123.008 108.722 123.336 108.153 124.897 101.314C125.057 100.611 125.236 99.8285 125.441 98.9508C125.985 96.6313 127.873 95.0465 130.252 94.9145C131.152 94.8645 131.954 94.8246 132.673 94.7887C139.68 94.4395 140.297 94.2148 145.889 89.9785C146.463 89.5434 147.103 89.059 147.825 88.5188C148.778 87.8047 149.871 87.4481 150.964 87.4481C152.057 87.4481 153.151 87.8051 154.105 88.5188C154.827 89.059 155.466 89.5438 156.041 89.9789C161.632 94.2148 162.25 94.4395 169.256 94.7887C169.975 94.8246 170.777 94.8645 171.677 94.9145C174.056 95.0465 175.945 96.6313 176.488 98.9512C176.693 99.8285 176.872 100.611 177.032 101.314C178.593 108.153 178.921 108.722 184.064 113.493C184.592 113.983 185.18 114.529 185.838 115.146C187.575 116.777 188.002 119.204 186.928 121.33ZM150.964 97.6652C136.708 97.6652 125.11 109.263 125.11 123.519C125.11 137.775 136.708 149.373 150.964 149.373C165.22 149.373 176.818 137.775 176.818 123.519C176.818 109.263 165.22 97.6652 150.964 97.6652ZM150.964 143.123C140.155 143.123 131.36 134.329 131.36 123.519C131.36 112.709 140.154 103.915 150.964 103.915C161.774 103.915 170.568 112.709 170.568 123.519C170.568 134.329 161.774 143.123 150.964 143.123Z" fill="white"/>
</svg>
