<svg width="120" height="120" viewBox="0 0 120 120" fill="none" xmlns="http://www.w3.org/2000/svg">
<g clip-path="url(#clip0_40_7)">
<path d="M79.9345 50.1115C81.934 48.1325 83.175 45.3889 83.175 42.36C83.175 36.344 78.2796 31.4498 72.2625 31.4498C67.6258 31.4498 63.5162 34.3891 61.9818 38.6962C61.3386 38.5777 60.677 38.5125 59.9999 38.5125C59.3228 38.5125 58.6614 38.5777 58.018 38.6962C56.4835 34.3889 52.3737 31.4498 47.7373 31.4498C41.7202 31.4498 36.8247 36.344 36.8247 42.36C36.8247 45.3889 38.066 48.1325 40.0655 50.1115C35.2692 52.8437 32.1815 58.0173 32.1815 63.644C32.1815 64.615 32.9686 65.4018 33.9393 65.4018C34.9101 65.4018 35.6972 64.615 35.6972 63.644C35.6972 58.6745 38.8085 54.1618 43.4459 52.392C45.4229 53.2412 47.6077 53.4834 49.7227 53.0879C50.2742 54.6271 51.1638 56.0232 52.3259 57.1733C49.9308 58.5285 47.9389 60.4959 46.554 62.8739C45.1692 65.252 44.4412 67.9554 44.4446 70.7074C44.4446 71.6784 45.2316 72.4652 46.2024 72.4652C47.1732 72.4652 47.9602 71.6784 47.9602 70.7074C47.9574 68.3395 48.6538 66.0235 49.962 64.0498C51.2702 62.0762 53.1321 60.5327 55.314 59.6129C55.4335 59.5623 55.5439 59.4993 55.6456 59.4273C57.0187 60.0279 58.5012 60.3375 59.9999 60.3365C61.5233 60.3365 62.9741 60.0217 64.2923 59.4554C68.9275 61.2252 72.0396 65.7426 72.0396 70.7074C72.0396 71.6784 72.8266 72.4652 73.7974 72.4652C74.7682 72.4652 75.5552 71.6784 75.5552 70.7074C75.5552 65.0859 72.4668 59.908 67.672 57.175C68.8351 56.0246 69.7253 54.6279 70.277 53.0879C72.392 53.4835 74.5768 53.2413 76.5537 52.392C81.191 54.1618 84.3024 58.674 84.3024 63.644C84.3024 64.615 85.0894 65.4018 86.0602 65.4018C87.031 65.4018 87.818 64.615 87.818 63.644C87.8185 58.0171 84.7308 52.8437 79.9345 50.1115ZM49.0883 49.4246C49.0883 49.4937 49.0922 49.5617 49.0934 49.6304C48.6507 49.7129 48.1972 49.7569 47.7375 49.7569C43.6589 49.7569 40.3406 46.4389 40.3406 42.36C40.3406 38.2828 43.6589 34.9654 47.7375 34.9654C50.8843 34.9654 53.6717 36.9621 54.7091 39.8857C51.3598 41.7509 49.0883 45.3268 49.0883 49.4246ZM52.6039 49.4246C52.6039 45.3464 55.9217 42.0284 60.0001 42.0284C64.0785 42.0284 67.3963 45.3462 67.3963 49.4246C67.3963 53.503 64.0785 56.8208 60.0001 56.8208C55.9217 56.8208 52.6039 53.5027 52.6039 49.4246ZM70.9066 49.6304C70.9078 49.5617 70.9117 49.4935 70.9117 49.4246C70.9117 45.3268 68.6402 41.7511 65.2909 39.8859C66.3283 36.9623 69.1157 34.9657 72.2625 34.9657C76.3411 34.9657 79.6594 38.2828 79.6594 42.3603C79.6594 46.4389 76.3411 49.7572 72.2625 49.7572C71.8076 49.7566 71.3537 49.7141 70.9066 49.6304Z" fill="black"/>
<path d="M105.523 75.9701V44.0182C109.905 43.1913 113.23 39.3373 113.23 34.7189C113.23 29.4993 108.984 25.2531 103.764 25.2531C100.896 25.2531 98.3229 26.5375 96.5857 28.5592L68.9324 12.5923C69.2855 11.5876 69.4658 10.5303 69.4656 9.46529C69.4656 4.2462 65.2194 0 60.0001 0C54.7807 0 50.5343 4.2462 50.5343 9.46552C50.5343 10.5612 50.7234 11.6129 51.0675 12.5926L23.4141 28.5592C21.6769 26.5375 19.1042 25.2531 16.2357 25.2531C11.0161 25.2531 6.7699 29.4993 6.7699 34.7189C6.7699 39.3373 10.0952 43.1911 14.4769 44.0182V75.9701C10.0952 76.7969 6.7699 80.651 6.7699 85.2694C6.7699 90.489 11.0161 94.7352 16.2357 94.7352C19.0997 94.7352 21.6687 93.4548 23.4059 91.4387L51.0673 107.408C50.7142 108.413 50.534 109.47 50.5343 110.534C50.5343 115.754 54.7805 120 60.0001 120C65.2196 120 69.4658 115.754 69.4658 110.534C69.4658 109.439 69.2767 108.388 68.9328 107.408L96.5942 91.4387C98.3314 93.455 100.9 94.7352 103.764 94.7352C108.984 94.7352 113.23 90.489 113.23 85.2694C113.23 80.6508 109.904 76.7969 105.523 75.9701ZM103.764 28.7688C107.045 28.7688 109.714 31.4381 109.714 34.7189C109.714 37.9997 107.045 40.669 103.764 40.669C100.483 40.669 97.8141 37.9997 97.8141 34.7189C97.8141 31.4381 100.483 28.7688 103.764 28.7688ZM60.0001 3.51565C63.2809 3.51565 65.9502 6.18472 65.9502 9.46552C65.9502 12.7433 63.2858 15.4105 60.0092 15.4154L60.0001 15.4149L59.9909 15.4154C56.7143 15.4105 54.0499 12.7433 54.0499 9.46552C54.0499 6.18472 56.719 3.51565 60.0001 3.51565ZM10.2855 34.7189C10.2855 31.4381 12.9549 28.7688 16.2357 28.7688C19.5165 28.7688 22.1858 31.4381 22.1858 34.7189C22.1858 37.9997 19.5165 40.669 16.2357 40.669C12.9549 40.669 10.2855 37.9997 10.2855 34.7189ZM16.2357 91.2193C12.9549 91.2193 10.2855 88.55 10.2855 85.2692C10.2855 81.9884 12.9549 79.3191 16.2357 79.3191C19.5165 79.3191 22.1858 81.9884 22.1858 85.2692C22.1858 88.55 19.5165 91.2193 16.2357 91.2193ZM60.0001 116.484C56.7193 116.484 54.0499 113.815 54.0499 110.534C54.0499 107.253 56.7193 104.584 60.0001 104.584C63.2809 104.584 65.9502 107.253 65.9502 110.534C65.9502 113.815 63.2809 116.484 60.0001 116.484ZM67.1708 104.366C65.7981 102.772 63.9055 101.64 61.7576 101.235V94.4628C61.7576 93.4918 60.9706 92.705 59.9998 92.705C59.029 92.705 58.242 93.4918 58.242 94.4628V101.235C56.0944 101.64 54.2018 102.772 52.8288 104.366L25.168 88.3965C25.5212 87.3918 25.7015 86.3344 25.7012 85.2694C25.7012 84.1728 25.5116 83.1199 25.167 82.1395L31.0335 78.7516C31.4306 78.5152 31.7187 78.1318 31.8353 77.6846C31.9519 77.2373 31.8876 76.7621 31.6565 76.3618C31.4253 75.9616 31.0458 75.6685 30.6002 75.5459C30.1545 75.4234 29.6785 75.4813 29.2752 75.7071L23.4036 79.098C22.0308 77.5057 20.139 76.3746 17.9923 75.9698V44.0185C20.1397 43.6137 22.032 42.4819 23.4048 40.8888L29.2843 44.2842C29.4842 44.3998 29.7049 44.4748 29.9337 44.505C30.1626 44.5352 30.3952 44.52 30.6182 44.4602C30.8412 44.4005 31.0502 44.2974 31.2334 44.1569C31.4165 44.0163 31.5701 43.8411 31.6855 43.6411C31.801 43.4412 31.8759 43.2205 31.9061 42.9916C31.9363 42.7628 31.921 42.5302 31.8613 42.3072C31.8016 42.0842 31.6985 41.8752 31.558 41.692C31.4175 41.5088 31.2423 41.3551 31.0424 41.2397L25.1673 37.8469C25.5206 36.8419 25.701 35.7842 25.7007 34.7189C25.701 33.6581 25.5221 32.6049 25.1715 31.6038L52.8288 15.6345C54.2016 17.2278 56.0939 18.3599 58.2413 18.7649V25.5376C58.2413 26.5087 59.0283 27.2955 59.9991 27.2955C60.9699 27.2955 61.7569 26.5087 61.7569 25.5376V18.7649C63.9043 18.3599 65.7966 17.2278 67.1694 15.6345L94.8267 31.6038C94.4762 32.6049 94.2973 33.6581 94.2975 34.7189C94.2975 35.8148 94.4869 36.8669 94.831 37.8469L88.9558 41.2397C88.5521 41.4728 88.2575 41.8568 88.1369 42.3071C88.0163 42.7575 88.0795 43.2373 88.3126 43.641C88.5457 44.0447 88.9297 44.3393 89.38 44.4599C89.8304 44.5806 90.3102 44.5174 90.7139 44.2842L96.5935 40.8888C97.9664 42.4819 99.8588 43.6137 102.006 44.0185V75.9698C99.8593 76.3746 97.9676 77.5057 96.5946 79.098L90.723 75.7071C90.5231 75.5916 90.3024 75.5167 90.0736 75.4865C89.8447 75.4564 89.6121 75.4716 89.3891 75.5313C89.1661 75.591 88.9571 75.6941 88.7739 75.8346C88.5908 75.9751 88.4371 76.1503 88.3216 76.3502C88.2062 76.5501 88.1312 76.7708 88.1011 76.9997C88.0709 77.2286 88.0861 77.4611 88.1458 77.6841C88.2056 77.9071 88.3086 78.1162 88.4491 78.2993C88.5896 78.4825 88.7648 78.6362 88.9647 78.7516L94.8312 82.1395C94.4774 83.1451 94.2968 84.2034 94.297 85.2694C94.297 86.3651 94.4862 87.417 94.8303 88.3965L67.1708 104.366ZM103.764 91.2193C100.483 91.2193 97.8141 88.55 97.8141 85.2692C97.8141 81.9884 100.483 79.3191 103.764 79.3191C107.045 79.3191 109.714 81.9884 109.714 85.2692C109.714 88.55 107.045 91.2193 103.764 91.2193Z" fill="black"/>
<path d="M74.7229 78.1622H69.4917C68.5209 78.1622 67.7338 78.949 67.7338 79.92C67.7338 80.891 68.5209 81.6778 69.4917 81.6778H74.7229C75.6937 81.6778 76.4807 80.891 76.4807 79.92C76.4807 78.949 75.6937 78.1622 74.7229 78.1622ZM74.7229 85.0469H45.2767C44.306 85.0469 43.5189 85.8337 43.5189 86.8047C43.5189 87.7758 44.306 88.5626 45.2767 88.5626H74.7231C74.954 88.5625 75.1826 88.5171 75.3958 88.4287C75.6091 88.3404 75.8029 88.2109 75.9661 88.0476C76.1293 87.8844 76.2588 87.6906 76.3471 87.4773C76.4354 87.2641 76.4809 87.0355 76.4808 86.8046C76.4808 86.5738 76.4353 86.3452 76.347 86.132C76.2586 85.9187 76.1291 85.7249 75.9659 85.5617C75.8027 85.3985 75.6089 85.269 75.3956 85.1807C75.1823 85.0924 74.9537 85.0469 74.7229 85.0469ZM45.2767 81.6778H45.3011C46.2719 81.6778 47.0589 80.891 47.0589 79.92C47.0589 78.949 46.2719 78.1622 45.3011 78.1622H45.2767C44.306 78.1622 43.5189 78.949 43.5189 79.92C43.5189 80.891 44.306 81.6778 45.2767 81.6778ZM51.3897 81.6778C52.3605 81.6778 53.1475 80.891 53.1475 79.92C53.1475 78.949 52.3605 78.1622 51.3897 78.1622H51.3653C50.3945 78.1622 49.6075 78.949 49.6075 79.92C49.6075 80.891 50.3945 81.6778 51.3653 81.6778H51.3897ZM57.4783 81.6778C58.4491 81.6778 59.2361 80.891 59.2361 79.92C59.2361 78.949 58.4491 78.1622 57.4783 78.1622H57.4539C56.4831 78.1622 55.6961 78.949 55.6961 79.92C55.6961 80.891 56.4831 81.6778 57.4539 81.6778H57.4783Z" fill="black"/>
</g>
<defs>
<clipPath id="clip0_40_7">
<rect width="120" height="120" fill="white"/>
</clipPath>
</defs>
</svg>
