<svg width="120" height="120" viewBox="0 0 120 120" fill="none" xmlns="http://www.w3.org/2000/svg">
<path fill-rule="evenodd" clip-rule="evenodd" d="M104.565 22.8878C92.3438 35.9875 85.9757 41.1982 85.2357 41.7888C84.9976 41.958 84.8103 42.1892 84.6941 42.4572C83.8363 44.479 83.134 46.5633 82.5933 48.6919C82.3687 49.5295 82.1837 50.3607 82.0121 51.1889C78.5109 47.0563 73.8602 43.8987 68.4962 42.2695C68.5754 41.8704 68.6681 41.4715 68.7473 41.075C68.9323 40.1594 69.0775 39.2359 69.1965 38.298L69.1833 38.2954C69.2097 38.047 69.1833 37.788 69.0909 37.537C69.0777 37.5171 66.0523 29.9784 61.7585 11.388C61.7321 11.1641 61.7834 10.9378 61.9039 10.7472C61.9662 10.6432 62.0485 10.5525 62.146 10.4803C62.2435 10.4082 62.3543 10.3561 62.472 10.327C62.7108 10.2621 62.9653 10.289 63.1853 10.4023C63.3794 10.511 63.5326 10.6804 63.6213 10.8845C64.8237 15.1745 66.0127 18.7694 67.2151 21.672C68.4307 24.6262 69.6725 26.8882 70.9145 28.4578C70.9937 28.566 71.0863 28.6666 71.1919 28.7551C71.9318 29.3669 72.7245 29.927 73.5437 30.4318C74.2836 30.8902 75.0631 31.2946 75.8558 31.6526C76.7383 32.4148 77.7817 32.9676 78.9079 33.2698C80.0969 33.5868 81.2861 33.6079 82.409 33.3794C83.2413 33.4574 84.0869 33.4865 84.9458 33.4586C85.8802 33.4311 86.8115 33.3398 87.7334 33.1853V33.1841C87.8369 33.1651 87.9386 33.1372 88.0373 33.1008C89.9265 32.3714 92.1461 31.02 94.7225 29.0434C97.2062 27.1315 100.034 24.6214 103.205 21.5112C103.39 21.3605 103.627 21.2918 103.852 21.2998C104.095 21.314 104.326 21.4164 104.499 21.5878C104.673 21.7596 104.777 21.9899 104.79 22.2338C104.789 22.4635 104.723 22.6961 104.565 22.8878ZM93.6914 71.7137L98.1439 56.2491C98.1967 56.0919 98.2761 55.9519 98.3949 55.8329C98.5932 55.615 98.897 55.4657 99.2273 55.3903C99.6105 55.3044 100.02 55.3123 100.39 55.4194C100.641 55.4921 100.879 55.6135 101.063 55.7866C101.196 55.9095 101.288 56.0388 101.341 56.1737C101.381 56.2953 101.395 56.4241 101.381 56.5515C101.222 58.3193 101.103 60.1992 100.971 62.1982C100.495 69.8201 99.9009 79.2099 96.5849 84.3612C94.6824 87.2943 92.291 89.0686 89.7542 90.9526C88.182 92.1204 86.5569 93.3281 84.9055 94.8766C82.8444 96.8213 81.4176 98.8812 80.453 101.031C79.4887 103.167 78.9732 105.377 78.7356 107.646C78.6744 108.212 78.4062 108.736 77.9825 109.116C77.5609 109.493 77.0153 109.702 76.4498 109.702H61.7054V98.8085C61.7054 94.9587 63.7401 93.2131 66.4485 90.8813C66.9371 90.4691 67.4216 90.0521 67.9017 89.6302V89.6222L84.3506 76.7393C84.9451 76.2703 85.7378 76.0548 86.5173 76.0906C87.2837 76.1235 88.0236 76.3997 88.5521 76.9111C88.6445 76.9997 88.7239 77.0801 88.7899 77.1595C89.0937 77.5546 89.2392 78.0144 89.2128 78.4622C89.1864 78.9101 88.9881 79.3594 88.6315 79.7359C88.5391 79.8257 88.4597 79.9078 88.3673 79.9803L76.8067 89.0304C76.133 89.5615 76.014 90.5419 76.5425 91.2209C77.0709 91.9013 78.0487 92.0201 78.7356 91.4904L90.2827 82.4388C90.495 82.2764 90.6938 82.097 90.8772 81.9024C91.7755 80.9683 92.2644 79.8137 92.3304 78.6324C92.3848 77.6496 92.1457 76.6727 91.6435 75.8261C91.9737 75.3835 92.2776 74.9316 92.5418 74.46C93.0309 73.6147 93.4008 72.7059 93.6914 71.7137ZM42.2839 109.116C41.8603 108.736 41.5921 108.212 41.5308 107.646C41.2929 105.378 40.7777 103.167 39.8133 101.031C38.8488 98.8815 37.422 96.8215 35.3609 94.8768C33.7094 93.3283 32.0844 92.1209 30.5121 90.9528C27.9756 89.0688 25.584 87.2945 23.6947 84.3615C20.3652 79.2101 19.7707 69.8206 19.295 62.1984C19.1628 60.1995 19.0572 58.3193 18.8853 56.5517C18.8714 56.4244 18.8849 56.2956 18.9249 56.1739C18.9777 56.0391 19.0836 55.9097 19.2024 55.7868C19.3874 55.6138 19.6253 55.4921 19.8763 55.4196C20.2461 55.3126 20.6558 55.3047 21.0389 55.3906C21.3691 55.4659 21.6729 55.6152 21.8712 55.8331C21.99 55.9519 22.0694 56.0921 22.1222 56.2493L26.5747 71.7139C26.8653 72.7061 27.2354 73.6152 27.7241 74.4607C27.9883 74.9323 28.2921 75.3843 28.6224 75.8268C28.12 76.6734 27.8808 77.6502 27.9353 78.6331C28.0013 79.8142 28.4901 80.9691 29.3885 81.9031C29.5719 82.0976 29.7707 82.277 29.9829 82.4395L41.5301 91.4911C42.2172 92.0208 43.1947 91.902 43.7232 91.2216C44.2517 90.5427 44.1329 89.5623 43.4589 89.0311L31.8986 79.9783C31.8194 79.9083 31.7268 79.8264 31.6344 79.7364C31.2777 79.3598 31.0795 78.9106 31.0531 78.4627C31.0267 78.0149 31.1719 77.555 31.476 77.16C31.542 77.0808 31.6214 77.0002 31.7138 76.9116C32.2423 76.4002 32.9822 76.1242 33.7617 76.091C34.5413 76.0553 35.3208 76.2708 35.9153 76.7398L52.3641 89.6227V89.6307C52.8445 90.0525 53.329 90.4696 53.8176 90.8818C56.5392 93.2136 58.5607 94.9589 58.5607 98.809V109.702H43.8295C43.2597 109.704 42.7093 109.496 42.2839 109.116ZM37.4616 48.8755C36.9199 46.759 36.2196 44.6227 35.2949 42.4572C35.1761 42.1771 34.991 41.9498 34.7532 41.7888C34.0265 41.1982 27.6583 35.9875 15.4243 22.8878C15.273 22.7048 15.1973 22.4708 15.2129 22.2338C15.2129 22.0039 15.3185 21.7714 15.5035 21.5878C15.6753 21.4068 15.9132 21.3103 16.151 21.2998C16.3757 21.2918 16.6003 21.3605 16.7983 21.5112C19.9692 24.6214 22.7966 27.1315 25.2804 29.0434C27.8436 31.0198 30.0763 32.3714 31.9656 33.1008C32.058 33.1404 32.1638 33.1668 32.2694 33.1841V33.1853C34.1203 33.496 36.005 33.5525 37.8713 33.3533C38.9546 33.5474 40.0908 33.5119 41.214 33.2105C42.3467 32.9106 43.3954 32.3547 44.2793 31.5854C45.0456 31.23 45.7987 30.8338 46.512 30.3898C47.3311 29.8891 48.0974 29.3434 48.7975 28.7554C48.9163 28.6668 48.9957 28.5665 49.0749 28.458C50.3301 26.8884 51.5587 24.6266 52.7875 21.6722C53.9765 18.7697 55.1789 15.1747 56.3678 10.8847C56.4574 10.6769 56.6161 10.5066 56.8171 10.4026C57.0285 10.2943 57.2796 10.26 57.5174 10.3272C57.7571 10.3894 57.9646 10.5394 58.0987 10.7474C58.2175 10.9351 58.2705 11.161 58.2441 11.3882C53.9371 29.9786 50.9117 37.5173 50.9117 37.5372C50.8061 37.7882 50.7794 38.0472 50.8061 38.2956V38.2983C50.9249 39.247 51.0703 40.1823 51.2553 41.1084C51.3345 41.5193 51.4272 41.9342 51.5196 42.349C46.1952 44.023 41.5843 47.1977 38.1228 51.3411C38.0964 51.3768 38.07 51.4138 38.0436 51.4493C37.8713 50.5903 37.673 49.733 37.4616 48.8755ZM35.2289 23.4454C34.6229 24.5041 34.4614 25.7598 34.7796 26.9374C35.1098 28.1674 35.9025 29.1451 36.9199 29.7305C37.3196 29.9613 37.7516 30.1309 38.2015 30.2338C38.2279 30.2378 38.2543 30.2443 38.2807 30.251C38.9678 30.3898 39.6943 30.3806 40.4078 30.1877C41.5868 29.8724 42.5934 29.104 43.2086 28.05C43.7767 27.0511 43.9881 25.8343 43.6843 24.6269C43.6589 24.5836 43.6453 24.5345 43.6447 24.4843C43.3177 23.3338 42.5545 22.3563 41.5176 21.7601V21.7574C40.5266 21.1841 39.3113 20.9832 38.0957 21.2858C38.0561 21.3005 38.0033 21.3137 37.9634 21.3242C36.7613 21.6638 35.8099 22.4472 35.2286 23.4487V23.4454H35.2289ZM52.1666 66.8767C51.5589 74.6256 53.4086 82.3889 57.7553 90.1692L57.7421 90.1783C58.68 91.0423 59.4859 91.9157 60.1334 92.9146C60.7675 91.9303 61.5602 91.0702 62.4852 90.2153C66.8054 82.4772 68.6815 74.7574 68.1266 67.0522L68.087 66.5674C65.3592 66.8159 62.6215 66.9407 59.8824 66.9413V66.9348C57.3192 66.9348 54.743 66.8225 52.1798 66.6031C52.1798 66.6943 52.1666 66.7843 52.1666 66.8767ZM60.1332 45.3612C56.13 51.4255 53.6066 57.4714 52.5761 63.5026C55.006 63.7082 57.4435 63.8118 59.8821 63.8131V63.8079C62.4849 63.8079 65.0875 63.6917 67.6771 63.4565C66.6468 57.4395 64.1232 51.4083 60.1332 45.3612ZM40.5269 53.3386C38.7308 55.4963 37.2983 57.9323 36.2858 60.5508C40.6193 61.7729 45.0321 62.6462 49.458 63.1826C50.5017 56.8884 53.0383 50.6076 57.0679 44.3424C56.5526 44.4031 56.0373 44.4773 55.5353 44.567C54.9936 44.6662 54.4519 44.7823 53.9234 44.9172C53.8838 44.929 53.8442 44.9436 53.8046 44.9542C53.7518 44.9674 53.699 44.9753 53.6592 44.9832C48.4013 46.3507 43.8561 49.3392 40.5269 53.3386ZM34.806 73.0217C35.8893 73.1671 36.9595 73.5859 37.8446 74.2807L52.0209 85.3865C49.5372 79.1465 48.5462 72.9 49.0351 66.6427L49.0747 66.2835C44.4302 65.7251 39.8362 64.8064 35.3342 63.5354C34.8453 65.5118 34.5943 67.5703 34.5943 69.6763C34.5948 70.7928 34.6608 71.9078 34.806 73.0217ZM85.685 69.6763C85.685 67.5228 85.4076 65.418 84.8923 63.402C80.4051 64.6963 75.8246 65.6416 71.1917 66.2295C71.2049 66.4303 71.2313 66.6298 71.2445 66.8333C71.6937 73.0258 70.7028 79.2115 68.2454 85.3894L82.4217 74.2807C83.3069 73.5857 84.3773 73.1669 85.4606 73.0217C85.6058 71.9078 85.685 70.7928 85.685 69.6763ZM83.928 60.4215C82.9238 57.8386 81.497 55.4458 79.7397 53.3386C76.3574 49.2785 71.7333 46.2622 66.3825 44.9225C66.3247 44.9147 66.2673 44.9036 66.2107 44.8894C66.1841 44.8816 66.1577 44.8732 66.1315 44.8642C65.6673 44.7531 65.2004 44.654 64.7311 44.567C64.2226 44.477 63.7114 44.4021 63.1985 44.3424C67.2149 50.5862 69.7517 56.8462 70.7952 63.1193C75.2358 62.56 79.6265 61.6581 83.928 60.4215ZM60.0012 17.5078C56.8567 30.281 54.558 36.7178 53.9633 38.298C54.0557 39.0391 54.1879 39.7778 54.3333 40.5058C54.3993 40.8691 54.4788 41.2246 54.558 41.5774C54.7034 41.551 54.8486 41.5219 54.9941 41.4955C56.6899 41.188 58.4099 41.0332 60.1334 41.033C61.8775 41.033 63.5949 41.1917 65.2728 41.4955C65.3388 41.5046 65.3916 41.5179 65.4446 41.5284C65.5238 41.1809 65.6033 40.8322 65.6693 40.4755C65.8147 39.7541 65.9335 39.0288 66.0393 38.2983C65.4444 36.7179 63.1457 30.281 60.0012 17.5078ZM76.4633 24.612C76.133 25.8434 76.331 27.0893 76.9257 28.1066C77.507 29.1226 78.4848 29.9153 79.7136 30.2443C80.2962 30.4018 80.9042 30.4429 81.5027 30.3652C82.1012 30.2874 82.6785 30.0924 83.2015 29.7912V29.7886C84.2189 29.1994 85.0248 28.2216 85.3418 26.9957C85.6601 25.8168 85.4986 24.5599 84.8925 23.4998C84.2981 22.4851 83.3203 21.6912 82.0917 21.3634C81.5091 21.2053 80.9008 21.1642 80.3022 21.2424C79.7035 21.3206 79.1263 21.5166 78.6038 21.8191C78.0806 22.1206 77.6221 22.5226 77.2547 23.0019C76.8874 23.4812 76.6184 24.0284 76.4633 24.612ZM106.705 19.3733C105.965 18.6216 104.975 18.2198 103.97 18.179C102.979 18.1368 101.962 18.4565 101.156 19.1462C101.117 19.1832 101.064 19.2228 101.024 19.2638C97.9454 22.2974 95.1974 24.731 92.8061 26.5687C90.7185 28.1779 88.9217 29.3141 87.4025 29.9786C87.8358 29.3078 88.1613 28.5731 88.367 27.8014C88.9219 25.7455 88.5785 23.6594 87.6007 21.9432C86.6097 20.2284 84.9583 18.8887 82.9106 18.3377C80.8495 17.7881 78.762 18.1236 77.0445 19.1119C75.3269 20.1055 73.9925 21.7476 73.4378 23.8049C73.2132 24.6386 73.1472 25.4762 73.1868 26.2939C72.1826 24.9542 71.1521 23.0174 70.0951 20.4833C68.9457 17.6878 67.7829 14.1905 66.6204 9.99577C66.6072 9.92569 66.5808 9.85969 66.5544 9.79489C66.1967 8.86383 65.5106 8.09591 64.6255 7.63609C63.7404 7.17241 62.6966 7.02841 61.6661 7.30441C61.0494 7.47039 60.4797 7.77697 60.0014 8.20009C59.5232 7.77693 58.9534 7.47035 58.3368 7.30441C57.3062 7.02817 56.2625 7.17217 55.3641 7.63609C54.4858 8.10075 53.8054 8.86757 53.4485 9.79489C53.4221 9.85969 53.3957 9.92569 53.3693 9.99577C52.2067 14.1905 51.0439 17.6851 49.8945 20.4833C48.8904 22.9051 47.9126 24.7786 46.9351 26.1103C46.9754 25.3155 46.8907 24.5192 46.6841 23.7506V23.7466C46.1537 21.7687 44.8617 20.0813 43.0905 19.0536L43.0773 19.0577V19.0536C41.3597 18.0653 39.2856 17.7298 37.2245 18.2794V18.2806C35.1633 18.8328 33.5251 20.1672 32.5341 21.8808V21.8861C31.5432 23.5997 31.1997 25.6872 31.7546 27.7442C31.9749 28.578 32.3369 29.3677 32.8248 30.0787C31.2657 29.4326 29.3897 28.2634 27.1833 26.5682C24.792 24.7306 22.0572 22.297 18.9655 19.2634C18.9255 19.2198 18.8812 19.1804 18.8333 19.1458C18.0273 18.456 17.01 18.1363 16.019 18.1786C15.0149 18.2196 14.0371 18.6211 13.2842 19.3728C12.5311 20.1245 12.1349 21.109 12.0953 22.1102C12.0425 23.1024 12.3595 24.1092 13.0466 24.9216L13.0598 24.9283C13.073 24.9468 13.0862 24.9653 13.0994 24.9852C24.6069 37.3054 31.0941 42.8225 32.5737 44.0328C33.322 45.8581 33.9401 47.7341 34.4234 49.6466C34.8859 51.4738 35.2293 53.2786 35.4936 55.0675C34.3706 56.9568 33.4459 58.981 32.7852 61.1014C32.772 61.1158 32.772 61.1304 32.7588 61.1451V61.1755C31.9133 63.876 31.4508 66.7366 31.4508 69.6761C31.4508 70.8744 31.53 72.1018 31.6886 73.345C31.4259 73.4388 31.1698 73.5505 30.9223 73.6793C30.7514 73.4308 30.5883 73.177 30.4334 72.9182C30.0689 72.2661 29.7808 71.5741 29.5747 70.8559L25.1222 55.3913C24.924 54.7188 24.5937 54.1507 24.1579 53.6897C23.5104 53.0002 22.6385 52.5482 21.7269 52.3421C20.8418 52.1426 19.8905 52.1676 19.0185 52.4186C18.2918 52.6274 17.6181 52.9908 17.0633 53.5099C16.5876 53.9604 16.2441 54.4666 16.0195 55.0227C15.7949 55.5907 15.7157 56.2025 15.7685 56.8459C15.9271 58.4314 16.0459 60.3523 16.1781 62.395C16.6802 70.3803 17.3011 80.2178 21.0533 86.0522C23.2596 89.461 25.8756 91.4004 28.65 93.4615C30.143 94.5687 31.6886 95.7168 33.2081 97.1515C34.9521 98.7965 36.1543 100.521 36.9602 102.316C37.7793 104.126 38.2154 106.018 38.4266 107.977C38.5721 109.363 39.2325 110.576 40.1971 111.444C41.1617 112.312 42.4298 112.836 43.8305 112.836H76.4505C77.8377 112.836 79.1061 112.312 80.0839 111.444C81.0482 110.576 81.6957 109.363 81.8409 107.977C82.0524 106.018 82.4885 104.126 83.3076 102.316C84.1135 100.521 85.3159 98.7965 87.0597 97.1515C88.5792 95.7168 90.1248 94.5687 91.6178 93.4615C94.3922 91.4004 97.0082 89.461 99.2145 86.0522C102.98 80.2178 103.588 70.3803 104.09 62.395C104.222 60.3526 104.341 58.4314 104.499 56.8459C104.552 56.2025 104.473 55.5907 104.248 55.0227C104.037 54.4663 103.68 53.9604 103.205 53.5099C102.65 52.9908 101.976 52.6274 101.249 52.4186C100.377 52.1676 99.426 52.1424 98.5541 52.3421C97.6293 52.5482 96.7704 53.0002 96.1099 53.6897C95.6738 54.1507 95.3436 54.7191 95.1453 55.3913L90.6929 70.8559C90.4868 71.5741 90.1986 72.2661 89.8341 72.9182C89.6889 73.1798 89.5171 73.4321 89.3453 73.6793C89.1074 73.5499 88.8432 73.4388 88.5789 73.345C88.7376 72.1018 88.8168 70.8744 88.8168 69.6761C88.8168 66.6228 88.3279 63.6567 87.4164 60.8638C87.4032 60.8427 87.4032 60.8242 87.39 60.803C86.6935 58.6658 85.7443 56.6193 84.5625 54.7071C84.8268 52.9577 85.157 51.2112 85.6063 49.475C86.082 47.6717 86.6633 45.859 87.4296 44.033C88.8962 42.8227 95.3964 37.3056 106.891 24.9854C106.904 24.9643 106.93 24.9432 106.943 24.9221C107.606 24.1392 107.951 23.1357 107.908 22.1107C107.866 21.0793 107.437 20.1017 106.705 19.3733Z" fill="black"/>
</svg>
