<svg width="90" height="120" viewBox="0 0 90 120" fill="none" xmlns="http://www.w3.org/2000/svg">
<path d="M89.2676 25.7325L64.2675 0.732422C63.7988 0.263672 63.1641 0 62.4998 0H9.99984C4.48477 0 0 4.48477 0 10.0001V110C0 115.515 4.48477 120 10.0001 120H80.0002C85.5152 120 90 115.515 90 110V27.4999C90 26.8359 89.7363 26.2012 89.2676 25.7325ZM64.9999 8.53523L81.4648 25.0001H69.9998C67.2436 25.0001 64.9999 22.7564 64.9999 20.0002V8.53523ZM85.0001 110C85.0001 112.756 82.7564 115 80.0002 115H10.0001C7.24383 115 5.00016 112.756 5.00016 110V10.0001C5.00016 7.24383 7.24383 5.00016 10.0001 5.00016H60V20.0002C60 25.5152 64.4848 30 70.0001 30H85.0001V110Z" fill="#0553D2"/>
<path d="M57.7465 73.391C55.432 71.5697 53.2324 69.6973 51.7676 68.2324C49.8633 66.3281 48.1664 64.4824 46.692 62.7246C48.9919 55.6177 50.0002 51.9532 50.0002 49.9999C50.0002 41.7016 47.002 39.9998 42.5002 39.9998C39.0797 39.9998 35.0002 41.7771 35.0002 50.2392C35.0002 53.9698 37.0437 58.4986 41.0939 63.7622C40.1027 66.787 38.9381 70.2759 37.6296 74.209C36.9996 76.0962 36.3162 77.8441 35.5934 79.4604C35.0169 79.7151 34.4463 79.9829 33.882 80.2636C31.8947 81.2573 30.0075 82.1508 28.257 82.9809C20.2734 86.7602 15 89.2603 15 94.1967C15 97.7808 18.8941 99.9998 22.5 99.9998C27.1484 99.9998 34.1674 93.7913 39.2944 83.3323C44.6166 81.2327 51.233 79.6774 56.4551 78.7034C60.6396 81.9211 65.2612 84.9998 67.5 84.9998C73.6987 84.9998 75 81.4158 75 78.4104C75 72.4997 68.247 72.4997 64.9999 72.4997C63.9916 72.4999 61.2867 72.7978 57.7465 73.391ZM22.5 94.9999C21.0717 94.9999 20.1049 94.3261 19.9999 94.1967C19.9999 92.4241 25.2855 89.9194 30.398 87.4976C30.7226 87.3438 31.0523 87.1898 31.3868 87.0312C27.6319 92.4757 23.9184 94.9999 22.5 94.9999ZM40.0001 50.2392C40.0001 45 41.6262 45 42.5002 45C44.2678 45 45.0002 45 45.0002 49.9999C45.0002 51.0546 44.2971 53.6913 43.0104 57.8077C41.0473 54.7852 40.0001 52.1948 40.0001 50.2392ZM41.9166 77.1094C42.0739 76.672 42.2253 76.2325 42.3708 75.791C43.2984 73.0078 44.1335 70.5077 44.8781 68.2568C45.9157 69.3994 47.0339 70.5689 48.2327 71.7675C48.7015 72.2363 49.8635 73.2909 51.4116 74.6116C48.33 75.2831 45.0513 76.1156 41.9166 77.1094ZM70.0001 78.4106C70.0001 79.5338 70.0001 79.9999 67.6807 80.0147C66.9996 79.8682 65.4248 78.9405 63.4814 77.6173C64.1869 77.5392 64.707 77.5001 64.9999 77.5001C68.6939 77.5001 69.7413 77.8613 70.0001 78.4106Z" fill="#0553D2"/>
</svg>
