<svg width="32" height="50" viewBox="0 0 32 50" fill="none" xmlns="http://www.w3.org/2000/svg">
<path d="M30.1602 8.51055V47.0628C30.1602 48.2837 29.1704 49.2734 27.9495 49.2734H4.05049C2.82959 49.2734 1.83984 48.2837 1.83984 47.0628V2.94883C1.83984 1.72793 2.82959 0.738281 4.05049 0.738281H27.9495C29.1704 0.738281 30.1602 1.72793 30.1602 2.94883V5.08936" stroke="white" stroke-width="2" stroke-miterlimit="10" stroke-linecap="round" stroke-linejoin="round"/>
<path d="M7.01191 45.8516H1.83984" stroke="white" stroke-width="2" stroke-miterlimit="10" stroke-linecap="round" stroke-linejoin="round"/>
<path d="M30.1602 45.8516H10.3906" stroke="white" stroke-width="2" stroke-miterlimit="10" stroke-linecap="round" stroke-linejoin="round"/>
<path d="M22.1281 4.08594H9.87188C9.21123 4.08594 8.67578 3.55049 8.67578 2.88984V0.736524H23.3242V2.88984C23.3242 3.55049 22.7888 4.08594 22.1281 4.08594Z" stroke="white" stroke-width="2" stroke-miterlimit="10" stroke-linecap="round" stroke-linejoin="round"/>
<path d="M24.1284 30.6504L20.3847 28.1547C20.2208 28.0457 20.0217 28.0026 19.8273 28.0341C19.633 28.0657 19.4577 28.1695 19.3367 28.3249L18.5228 29.4501C18.4094 29.5974 18.2471 29.6991 18.0652 29.7368C17.8833 29.7745 17.6939 29.7457 17.5314 29.6557C16.7917 29.2443 15.9169 28.8569 13.9867 26.9243C12.0567 24.9917 11.6668 24.1194 11.2553 23.3796C11.1653 23.2171 11.1366 23.0278 11.1743 22.8459C11.212 22.664 11.3137 22.5017 11.4608 22.3883L12.5862 21.5745C12.7415 21.4534 12.8453 21.2782 12.8769 21.0838C12.9084 20.8895 12.8654 20.6904 12.7564 20.5264L10.2606 16.7827C10.1493 16.6158 9.97814 16.4981 9.78249 16.4541C9.58684 16.4101 9.38175 16.4431 9.20978 16.5462L7.64435 17.4854C7.22123 17.7347 6.91023 18.1372 6.77579 18.6095C6.34767 20.1704 6.26134 23.6136 11.7795 29.1318C17.2978 34.65 20.7406 34.5634 22.3015 34.1353C22.7738 34.0009 23.1763 33.6899 23.4256 33.2667L24.3649 31.7012C24.468 31.5292 24.5009 31.3242 24.4569 31.1285C24.4129 30.9329 24.2953 30.7617 24.1284 30.6504Z" stroke="white" stroke-width="2" stroke-miterlimit="10" stroke-linecap="round" stroke-linejoin="round"/>
<path d="M15.5381 19.9238C18.5449 19.9238 20.9813 22.3604 20.9813 25.3672" stroke="white" stroke-width="2" stroke-miterlimit="10" stroke-linecap="round" stroke-linejoin="round"/>
<path d="M15.5381 15.5039C20.9853 15.5039 25.4014 19.9199 25.4014 25.3672" stroke="white" stroke-width="2" stroke-miterlimit="10" stroke-linecap="round" stroke-linejoin="round"/>
</svg>
