<svg width="40" height="40" viewBox="0 0 40 40" fill="none" xmlns="http://www.w3.org/2000/svg">
<g clip-path="url(#clip0_6017_10929)">
<path d="M23.6645 20.0312L39.24 4.45547C40.2535 3.44232 40.2535 1.80415 39.24 0.791115C38.2269 -0.222038 36.5887 -0.222038 35.5757 0.791115L19.9998 16.3667L4.42459 0.791115C3.41095 -0.222038 1.77338 -0.222038 0.760229 0.791115C-0.25341 1.80427 -0.25341 3.44232 0.760229 4.45547L16.3353 20.0312L0.760351 35.6068C-0.253288 36.6199 -0.253288 38.2581 0.760351 39.2711C1.00068 39.5122 1.28625 39.7033 1.60068 39.8336C1.9151 39.9639 2.25218 40.0308 2.59253 40.0304C3.25582 40.0304 3.91935 39.7765 4.42471 39.2711L19.9998 23.6956L35.5757 39.2711C35.816 39.5121 36.1016 39.7032 36.416 39.8335C36.7304 39.9638 37.0675 40.0307 37.4078 40.0304C38.0711 40.0304 38.7347 39.7765 39.24 39.2711C40.2535 38.258 40.2535 36.6199 39.24 35.6068L23.6645 20.0312Z" fill="#152D45"/>
</g>
<defs>
<clipPath id="clip0_6017_10929">
<rect width="40" height="40" fill="white"/>
</clipPath>
</defs>
</svg>
