<svg width="67" height="60" viewBox="0 0 67 60" fill="none" xmlns="http://www.w3.org/2000/svg">
<path d="M54.5246 60.0043C52.2118 60.0043 49.951 59.3184 48.028 58.0335C46.105 56.7486 44.6062 54.9224 43.7212 52.7856C42.8361 50.6489 42.6046 48.2978 43.0557 46.0294C43.5069 43.7611 44.6206 41.6775 46.256 40.0421C47.8914 38.4068 49.975 37.2931 52.2433 36.8419C54.5116 36.3907 56.8628 36.6223 58.9995 37.5073C61.1362 38.3924 62.9625 39.8912 64.2474 41.8141C65.5323 43.7371 66.2181 45.998 66.2181 48.3107C66.2147 51.411 64.9816 54.3833 62.7894 56.5755C60.5972 58.7677 57.6249 60.0008 54.5246 60.0043ZM54.5246 39.2039C52.7234 39.2039 50.9627 39.738 49.4651 40.7386C47.9675 41.7393 46.8002 43.1616 46.1109 44.8257C45.4217 46.4897 45.2413 48.3208 45.5927 50.0874C45.9441 51.8539 46.8114 53.4766 48.0851 54.7503C49.3587 56.0239 50.9814 56.8912 52.7479 57.2426C54.5145 57.594 56.3456 57.4137 58.0096 56.7244C59.6737 56.0351 61.096 54.8678 62.0967 53.3702C63.0974 51.8726 63.6315 50.1119 63.6315 48.3107C63.6287 45.8963 62.6684 43.5815 60.9611 41.8742C59.2538 40.1669 56.939 39.2066 54.5246 39.2039Z" fill="#777777"/>
<path d="M54.5251 49.5986C54.1821 49.5986 53.8532 49.4623 53.6107 49.2199L48.3993 44.0085C48.1619 43.7649 48.0299 43.4376 48.0321 43.0974C48.0343 42.7573 48.1704 42.4317 48.411 42.1911C48.6515 41.9506 48.9772 41.8146 49.3173 41.8124C49.6575 41.8103 49.9848 41.9423 50.2284 42.1798L54.9115 46.8616L57.6348 46.1319C57.9661 46.0431 58.3191 46.0896 58.6162 46.2612C58.9133 46.4327 59.1301 46.7152 59.2188 47.0466C59.3076 47.3779 59.2611 47.731 59.0896 48.028C58.918 48.3251 58.6355 48.5419 58.3042 48.6306L54.8598 49.5541C54.7506 49.5834 54.6381 49.5984 54.5251 49.5986ZM58.4744 16.7358H1.29333C0.950319 16.7358 0.621355 16.5995 0.378808 16.357C0.136261 16.1144 0 15.7855 0 15.4424L0 8.48794C0.00123238 7.37264 0.444832 6.30336 1.23347 5.51472C2.02211 4.72608 3.09139 4.28248 4.20669 4.28125H8.2856C8.62862 4.28125 8.95758 4.41751 9.20013 4.66006C9.44267 4.9026 9.57893 5.23157 9.57893 5.57458C9.57893 5.91759 9.44267 6.24656 9.20013 6.48911C8.95758 6.73165 8.62862 6.86791 8.2856 6.86791H4.20669C3.7772 6.86846 3.36546 7.03932 3.06176 7.34301C2.75807 7.64671 2.58721 8.05845 2.58666 8.48794V14.1491H57.1811V8.48794C57.1805 8.05845 57.0096 7.64671 56.706 7.34301C56.4023 7.03932 55.9905 6.86846 55.561 6.86791H51.4819C51.1388 6.86791 50.8099 6.73165 50.5673 6.48911C50.3248 6.24656 50.1885 5.91759 50.1885 5.57458C50.1885 5.23157 50.3248 4.9026 50.5673 4.66006C50.8099 4.41751 51.1388 4.28125 51.4819 4.28125H55.5615C56.6768 4.28248 57.7461 4.72608 58.5348 5.51472C59.3234 6.30336 59.767 7.37264 59.7682 8.48794V15.4424C59.7682 15.6123 59.7348 15.7806 59.6697 15.9375C59.6047 16.0944 59.5094 16.237 59.3892 16.3572C59.2691 16.4773 59.1265 16.5725 58.9695 16.6375C58.8125 16.7024 58.6443 16.7358 58.4744 16.7358Z" fill="#777777"/>
<path d="M46.5465 6.86791H38.7283C38.3853 6.86791 38.0563 6.73165 37.8138 6.48911C37.5712 6.24656 37.435 5.91759 37.435 5.57458C37.435 5.23157 37.5712 4.9026 37.8138 4.66006C38.0563 4.41751 38.3853 4.28125 38.7283 4.28125H46.5465C46.8895 4.28125 47.2185 4.41751 47.461 4.66006C47.7036 4.9026 47.8398 5.23157 47.8398 5.57458C47.8398 5.91759 47.7036 6.24656 47.461 6.48911C47.2185 6.73165 46.8895 6.86791 46.5465 6.86791ZM33.7932 6.86791H25.9745C25.6315 6.86791 25.3025 6.73165 25.06 6.48911C24.8174 6.24656 24.6812 5.91759 24.6812 5.57458C24.6812 5.23157 24.8174 4.9026 25.06 4.66006C25.3025 4.41751 25.6315 4.28125 25.9745 4.28125H33.7932C34.1362 4.28125 34.4652 4.41751 34.7077 4.66006C34.9503 4.9026 35.0865 5.23157 35.0865 5.57458C35.0865 5.91759 34.9503 6.24656 34.7077 6.48911C34.4652 6.73165 34.1362 6.86791 33.7932 6.86791ZM21.0394 6.86791H13.221C12.8779 6.86791 12.549 6.73165 12.3064 6.48911C12.0639 6.24656 11.9276 5.91759 11.9276 5.57458C11.9276 5.23157 12.0639 4.9026 12.3064 4.66006C12.549 4.41751 12.8779 4.28125 13.221 4.28125H21.0394C21.3824 4.28125 21.7114 4.41751 21.9539 4.66006C22.1965 4.9026 22.3327 5.23157 22.3327 5.57458C22.3327 5.91759 22.1965 6.24656 21.9539 6.48911C21.7114 6.73165 21.3824 6.86791 21.0394 6.86791ZM40.2125 53.1863H4.20669C3.09139 53.185 2.02211 52.7414 1.23347 51.9528C0.444832 51.1642 0.00123238 50.0949 0 48.9796L0 15.4424C0 15.0994 0.136261 14.7705 0.378808 14.5279C0.621355 14.2854 0.950319 14.1491 1.29333 14.1491H58.4744C58.8174 14.1491 59.1464 14.2854 59.3889 14.5279C59.6315 14.7705 59.7677 15.0994 59.7677 15.4424V35.0861C59.7677 35.4291 59.6315 35.7581 59.3889 36.0006C59.1464 36.2432 58.8174 36.3794 58.4744 36.3794C58.1314 36.3794 57.8024 36.2432 57.5599 36.0006C57.3173 35.7581 57.1811 35.4291 57.1811 35.0861V16.7358H2.58666V48.9796C2.58721 49.4091 2.75807 49.8208 3.06176 50.1245C3.36546 50.4282 3.7772 50.5991 4.20669 50.5996H40.2131C40.5561 50.5996 40.885 50.7359 41.1276 50.9784C41.3701 51.221 41.5064 51.5499 41.5064 51.8929C41.5064 52.236 41.3701 52.5649 41.1276 52.8075C40.885 53.05 40.5561 53.1863 40.2131 53.1863H40.2125Z" fill="#777777"/>
<path d="M11.8031 11.1514H9.70327C8.98448 11.1506 8.29534 10.8647 7.78708 10.3565C7.27881 9.84821 6.99294 9.15908 6.99219 8.44028C6.99219 8.09727 7.12845 7.76831 7.371 7.52576C7.61354 7.28321 7.94251 7.14695 8.28552 7.14695C8.62853 7.14695 8.9575 7.28321 9.20004 7.52576C9.44259 7.76831 9.57885 8.09727 9.57885 8.44028C9.57892 8.47326 9.59205 8.50487 9.61537 8.52819C9.63869 8.5515 9.67029 8.56463 9.70327 8.5647H11.8031C11.8361 8.56463 11.8677 8.5515 11.891 8.52819C11.9143 8.50487 11.9275 8.47326 11.9275 8.44028V2.71082C11.9275 2.67787 11.9143 2.64629 11.891 2.62301C11.8677 2.59974 11.8361 2.58666 11.8031 2.58666H9.70327C9.67032 2.58666 9.63871 2.59974 9.61538 2.62301C9.59206 2.64629 9.57892 2.67787 9.57885 2.71082C9.57885 3.05384 9.44259 3.3828 9.20004 3.62535C8.9575 3.86789 8.62853 4.00416 8.28552 4.00416C7.94251 4.00416 7.61354 3.86789 7.371 3.62535C7.12845 3.3828 6.99219 3.05384 6.99219 2.71082C6.99301 1.99208 7.27891 1.30301 7.78717 0.794798C8.29542 0.28659 8.98452 0.000753079 9.70327 0H11.8031C12.5219 0.000753079 13.211 0.28659 13.7192 0.794798C14.2275 1.30301 14.5134 1.99208 14.5142 2.71082V8.44028C14.5134 9.15906 14.2275 9.84815 13.7192 10.3564C13.211 10.8647 12.5219 11.1505 11.8031 11.1514ZM24.5569 11.1514H22.4568C21.7381 11.1505 21.049 10.8646 20.5408 10.3564C20.0326 9.84813 19.7467 9.15903 19.746 8.44028C19.746 8.09727 19.8823 7.76831 20.1248 7.52576C20.3673 7.28321 20.6963 7.14695 21.0393 7.14695C21.3823 7.14695 21.7113 7.28321 21.9538 7.52576C22.1964 7.76831 22.3327 8.09727 22.3327 8.44028C22.3327 8.47322 22.3458 8.50478 22.3691 8.5281C22.3923 8.55141 22.4239 8.56457 22.4568 8.5647H24.5569C24.5899 8.56457 24.6214 8.55141 24.6447 8.5281C24.6679 8.50478 24.681 8.47322 24.6811 8.44028V2.71082C24.681 2.67792 24.6679 2.64637 24.6446 2.62311C24.6214 2.59984 24.5898 2.58673 24.5569 2.58666H22.4568C22.4239 2.58673 22.3924 2.59984 22.3691 2.62311C22.3458 2.64637 22.3327 2.67792 22.3327 2.71082C22.3327 2.88067 22.2992 3.04885 22.2342 3.20576C22.1692 3.36267 22.0739 3.50525 21.9538 3.62535C21.8338 3.74544 21.6912 3.84071 21.5343 3.90571C21.3773 3.9707 21.2092 4.00416 21.0393 4.00416C20.8695 4.00416 20.7013 3.9707 20.5444 3.90571C20.3875 3.84071 20.2449 3.74544 20.1248 3.62535C20.0047 3.50525 19.9094 3.36267 19.8444 3.20576C19.7794 3.04885 19.746 2.88067 19.746 2.71082C19.7467 1.9921 20.0326 1.30303 20.5408 0.794814C21.049 0.286599 21.7381 0.000753201 22.4568 0H24.5569C25.2757 0.000753201 25.9647 0.286599 26.4729 0.794814C26.9812 1.30303 27.267 1.9921 27.2678 2.71082V8.44028C27.267 9.15903 26.9812 9.84813 26.473 10.3564C25.9647 10.8646 25.2757 11.1505 24.5569 11.1514ZM37.3105 11.1514H35.2106C34.4919 11.1505 33.8028 10.8646 33.2946 10.3564C32.7864 9.84813 32.5006 9.15903 32.4998 8.44028C32.4998 8.09727 32.6361 7.76831 32.8786 7.52576C33.1212 7.28321 33.4501 7.14695 33.7931 7.14695C34.1361 7.14695 34.4651 7.28321 34.7077 7.52576C34.9502 7.76831 35.0865 8.09727 35.0865 8.44028C35.0865 8.47324 35.0995 8.50484 35.1228 8.52817C35.1461 8.5515 35.1777 8.56463 35.2106 8.5647H37.3105C37.3435 8.56463 37.3751 8.5515 37.3984 8.52819C37.4217 8.50487 37.4348 8.47326 37.4349 8.44028V2.71082C37.4348 2.67787 37.4217 2.64629 37.3984 2.62301C37.375 2.59974 37.3434 2.58666 37.3105 2.58666H35.2106C35.1777 2.58666 35.1461 2.59975 35.1228 2.62303C35.0995 2.64631 35.0865 2.67789 35.0865 2.71082C35.0865 3.05384 34.9502 3.3828 34.7077 3.62535C34.4651 3.86789 34.1361 4.00416 33.7931 4.00416C33.4501 4.00416 33.1212 3.86789 32.8786 3.62535C32.6361 3.3828 32.4998 3.05384 32.4998 2.71082C32.5006 1.9921 32.7864 1.30303 33.2946 0.794814C33.8028 0.286599 34.4919 0.000753201 35.2106 0H37.3105C38.0292 0.000753079 38.7183 0.28659 39.2266 0.794798C39.7348 1.30301 40.0207 1.99208 40.0216 2.71082V8.44028C40.0207 9.15906 39.7348 9.84815 39.2266 10.3564C38.7183 10.8647 38.0292 11.1505 37.3105 11.1514ZM50.064 11.1514H47.9642C47.2454 11.1506 46.5562 10.8647 46.048 10.3565C45.5397 9.84821 45.2538 9.15908 45.2531 8.44028C45.2531 8.09727 45.3893 7.76831 45.6319 7.52576C45.8744 7.28321 46.2034 7.14695 46.5464 7.14695C46.8894 7.14695 47.2184 7.28321 47.4609 7.52576C47.7035 7.76831 47.8398 8.09727 47.8398 8.44028C47.8398 8.47326 47.8529 8.50487 47.8763 8.52819C47.8996 8.5515 47.9312 8.56463 47.9642 8.5647H50.064C50.0804 8.5647 50.0965 8.56149 50.1116 8.55523C50.1267 8.54898 50.1404 8.53982 50.152 8.52826C50.1636 8.51671 50.1727 8.50299 50.179 8.4879C50.1852 8.4728 50.1884 8.45662 50.1884 8.44028V2.71082C50.1884 2.6945 50.1852 2.67833 50.179 2.66325C50.1727 2.64817 50.1635 2.63447 50.152 2.62294C50.1404 2.61141 50.1267 2.60226 50.1116 2.59604C50.0965 2.58982 50.0803 2.58663 50.064 2.58666H47.9642C47.9312 2.58666 47.8996 2.59974 47.8763 2.62301C47.853 2.64629 47.8398 2.67787 47.8398 2.71082C47.8398 3.05384 47.7035 3.3828 47.4609 3.62535C47.2184 3.86789 46.8894 4.00416 46.5464 4.00416C46.2034 4.00416 45.8744 3.86789 45.6319 3.62535C45.3893 3.3828 45.2531 3.05384 45.2531 2.71082C45.2539 1.99208 45.5398 1.30301 46.0481 0.794798C46.5563 0.28659 47.2454 0.000753079 47.9642 0H50.064C50.7828 0.000753079 51.4719 0.28659 51.9801 0.794798C52.4884 1.30301 52.7743 1.99208 52.7751 2.71082V8.44028C52.7743 9.15906 52.4884 9.84815 51.9801 10.3564C51.4719 10.8647 50.7828 11.1505 50.064 11.1514ZM13.2209 25.5361H8.28552C7.94251 25.5361 7.61354 25.3998 7.371 25.1573C7.12845 24.9147 6.99219 24.5857 6.99219 24.2427C6.99219 23.8997 7.12845 23.5708 7.371 23.3282C7.61354 23.0857 7.94251 22.9494 8.28552 22.9494H13.2209C13.5639 22.9494 13.8929 23.0857 14.1354 23.3282C14.3779 23.5708 14.5142 23.8997 14.5142 24.2427C14.5142 24.5857 14.3779 24.9147 14.1354 25.1573C13.8929 25.3998 13.5639 25.5361 13.2209 25.5361ZM25.9744 25.5361H21.0393C20.6963 25.5361 20.3673 25.3998 20.1248 25.1573C19.8823 24.9147 19.746 24.5857 19.746 24.2427C19.746 23.8997 19.8823 23.5708 20.1248 23.3282C20.3673 23.0857 20.6963 22.9494 21.0393 22.9494H25.9744C26.3174 22.9494 26.6464 23.0857 26.8889 23.3282C27.1315 23.5708 27.2678 23.8997 27.2678 24.2427C27.2678 24.5857 27.1315 24.9147 26.8889 25.1573C26.6464 25.3998 26.3174 25.5361 25.9744 25.5361ZM38.7282 25.5361H33.7931C33.4501 25.5361 33.1212 25.3998 32.8786 25.1573C32.6361 24.9147 32.4998 24.5857 32.4998 24.2427C32.4998 23.8997 32.6361 23.5708 32.8786 23.3282C33.1212 23.0857 33.4501 22.9494 33.7931 22.9494H38.7282C39.0712 22.9494 39.4002 23.0857 39.6427 23.3282C39.8853 23.5708 40.0216 23.8997 40.0216 24.2427C40.0216 24.5857 39.8853 24.9147 39.6427 25.1573C39.4002 25.3998 39.0712 25.5361 38.7282 25.5361ZM51.4818 25.5361H46.5464C46.2034 25.5361 45.8744 25.3998 45.6319 25.1573C45.3893 24.9147 45.2531 24.5857 45.2531 24.2427C45.2531 23.8997 45.3893 23.5708 45.6319 23.3282C45.8744 23.0857 46.2034 22.9494 46.5464 22.9494H51.4818C51.8248 22.9494 52.1538 23.0857 52.3963 23.3282C52.6388 23.5708 52.7751 23.8997 52.7751 24.2427C52.7751 24.5857 52.6388 24.9147 52.3963 25.1573C52.1538 25.3998 51.8248 25.5361 51.4818 25.5361ZM13.2209 34.9621H8.28552C7.94251 34.9621 7.61354 34.8259 7.371 34.5833C7.12845 34.3408 6.99219 34.0118 6.99219 33.6688C6.99219 33.3258 7.12845 32.9968 7.371 32.7543C7.61354 32.5117 7.94251 32.3755 8.28552 32.3755H13.2209C13.5639 32.3755 13.8929 32.5117 14.1354 32.7543C14.3779 32.9968 14.5142 33.3258 14.5142 33.6688C14.5142 34.0118 14.3779 34.3408 14.1354 34.5833C13.8929 34.8259 13.5639 34.9621 13.2209 34.9621ZM25.9744 34.9621H21.0393C20.6963 34.9621 20.3673 34.8259 20.1248 34.5833C19.8823 34.3408 19.746 34.0118 19.746 33.6688C19.746 33.3258 19.8823 32.9968 20.1248 32.7543C20.3673 32.5117 20.6963 32.3755 21.0393 32.3755H25.9744C26.3174 32.3755 26.6464 32.5117 26.8889 32.7543C27.1315 32.9968 27.2678 33.3258 27.2678 33.6688C27.2678 34.0118 27.1315 34.3408 26.8889 34.5833C26.6464 34.8259 26.3174 34.9621 25.9744 34.9621ZM38.7282 34.9621H33.7931C33.4501 34.9621 33.1212 34.8259 32.8786 34.5833C32.6361 34.3408 32.4998 34.0118 32.4998 33.6688C32.4998 33.3258 32.6361 32.9968 32.8786 32.7543C33.1212 32.5117 33.4501 32.3755 33.7931 32.3755H38.7282C39.0712 32.3755 39.4002 32.5117 39.6427 32.7543C39.8853 32.9968 40.0216 33.3258 40.0216 33.6688C40.0216 34.0118 39.8853 34.3408 39.6427 34.5833C39.4002 34.8259 39.0712 34.9621 38.7282 34.9621ZM51.4818 34.9621H46.5464C46.2034 34.9621 45.8744 34.8259 45.6319 34.5833C45.3893 34.3408 45.2531 34.0118 45.2531 33.6688C45.2531 33.3258 45.3893 32.9968 45.6319 32.7543C45.8744 32.5117 46.2034 32.3755 46.5464 32.3755H51.4818C51.8248 32.3755 52.1538 32.5117 52.3963 32.7543C52.6388 32.9968 52.7751 33.3258 52.7751 33.6688C52.7751 34.0118 52.6388 34.3408 52.3963 34.5833C52.1538 34.8259 51.8248 34.9621 51.4818 34.9621ZM13.2209 44.3882H8.28552C7.94251 44.3882 7.61354 44.2519 7.371 44.0094C7.12845 43.7668 6.99219 43.4379 6.99219 43.0949C6.99219 42.7518 7.12845 42.4229 7.371 42.1803C7.61354 41.9378 7.94251 41.8015 8.28552 41.8015H13.2209C13.5639 41.8015 13.8929 41.9378 14.1354 42.1803C14.3779 42.4229 14.5142 42.7518 14.5142 43.0949C14.5142 43.4379 14.3779 43.7668 14.1354 44.0094C13.8929 44.2519 13.5639 44.3882 13.2209 44.3882ZM25.9744 44.3882H21.0393C20.6963 44.3882 20.3673 44.2519 20.1248 44.0094C19.8823 43.7668 19.746 43.4379 19.746 43.0949C19.746 42.7518 19.8823 42.4229 20.1248 42.1803C20.3673 41.9378 20.6963 41.8015 21.0393 41.8015H25.9744C26.3174 41.8015 26.6464 41.9378 26.8889 42.1803C27.1315 42.4229 27.2678 42.7518 27.2678 43.0949C27.2678 43.4379 27.1315 43.7668 26.8889 44.0094C26.6464 44.2519 26.3174 44.3882 25.9744 44.3882ZM38.7282 44.3882H33.7931C33.4501 44.3882 33.1212 44.2519 32.8786 44.0094C32.6361 43.7668 32.4998 43.4379 32.4998 43.0949C32.4998 42.7518 32.6361 42.4229 32.8786 42.1803C33.1212 41.9378 33.4501 41.8015 33.7931 41.8015H38.7282C39.0712 41.8015 39.4002 41.9378 39.6427 42.1803C39.8853 42.4229 40.0216 42.7518 40.0216 43.0949C40.0216 43.4379 39.8853 43.7668 39.6427 44.0094C39.4002 44.2519 39.0712 44.3882 38.7282 44.3882Z" fill="#777777"/>
</svg>
