<svg width="61" height="61" viewBox="0 0 61 61" fill="none" xmlns="http://www.w3.org/2000/svg">
<path fill-rule="evenodd" clip-rule="evenodd" d="M53.7832 12.5399C50.5686 16.6898 46.5806 20.6737 45.4099 21.8191C45.1511 22.0723 44.9645 22.3899 44.8694 22.7393C44.7742 23.0886 44.774 23.457 44.8687 23.8065L48.1225 36.0337C48.182 36.2573 48.2993 36.4612 48.4626 36.625C48.626 36.7888 48.8296 36.9066 49.053 36.9666C49.2764 37.0266 49.5117 37.0267 49.7352 36.9668C49.9586 36.907 50.1623 36.7893 50.3258 36.6256L50.5629 36.3885C50.8599 36.0916 51.2628 35.9248 51.6828 35.9249C52.1028 35.925 52.5056 36.0919 52.8026 36.3889C53.0995 36.686 53.2663 37.0888 53.2662 37.5089C53.2661 37.9289 53.0992 38.3317 52.8021 38.6286L50.6741 40.7559C50.4135 41.0164 50.2283 41.3425 50.1379 41.6997C50.0475 42.0569 50.0554 42.4319 50.1607 42.785L53.9704 55.5714L53.5576 55.9843C48.2639 47.4058 43.98 42.6215 38.1689 36.1326C37.4576 35.3396 36.7243 34.5196 35.9631 33.6653C35.6086 33.2671 35.1127 33.023 34.5809 32.9848C34.0491 32.9467 33.5234 33.1175 33.1156 33.4609L21.0936 43.6091C20.7835 43.8709 20.5584 44.219 20.4468 44.6092C20.3353 44.9994 20.3425 45.414 20.4674 45.8001L24.1333 57.1313L23.1473 58.1173L17.2176 48.9959C17.0705 48.7694 16.88 48.5742 16.6572 48.4215C16.4344 48.2688 16.1837 48.1615 15.9194 48.1059C15.6551 48.0503 15.3824 48.0475 15.1169 48.0975C14.8515 48.1475 14.5985 48.2495 14.3726 48.3975C13.555 48.9321 12.1603 49.8216 10.9266 50.5002L10.8391 50.5484C10.8882 50.4561 10.9373 50.362 10.9896 50.2664C11.6788 48.9869 12.5576 47.5603 13.0849 46.7256C13.2305 46.4951 13.3286 46.238 13.3737 45.9692C13.4188 45.7004 13.4099 45.4253 13.3474 45.16C13.285 44.8947 13.1704 44.6445 13.0102 44.424C12.8501 44.2034 12.6476 44.017 12.4146 43.8756L3.2 38.2852L4.15408 37.3312L15.6651 41.002C16.0555 41.1265 16.4744 41.1308 16.8673 41.0143C17.2602 40.8978 17.609 40.6659 17.8684 40.3487L27.8327 28.1755C28.175 27.7561 28.3373 27.2182 28.2843 26.6795C28.2313 26.1407 27.9673 25.6448 27.5498 25.3002C25.5564 23.6457 23.5779 21.9735 21.6144 20.2837C16.4639 15.873 12.2282 12.2472 5.56271 8.01561L6.00255 7.57577L18.3483 10.958C18.6963 11.0534 19.0633 11.0551 19.4121 10.9627C19.7608 10.8704 20.079 10.6874 20.3341 10.4323L22.4238 8.34181C22.7349 8.04182 23.1513 7.87593 23.5834 7.87985C24.0155 7.88377 24.4289 8.05717 24.7345 8.36276C25.0401 8.66834 25.2135 9.08168 25.2174 9.51382C25.2213 9.94597 25.0554 10.3624 24.7554 10.6735L24.5657 10.8639C24.4019 11.0278 24.2843 11.2321 24.2247 11.4561C24.1651 11.68 24.1657 11.9157 24.2264 12.1394C24.2871 12.363 24.4058 12.5667 24.5705 12.7297C24.7352 12.8928 24.94 13.0095 25.1642 13.068L37.3088 16.236C37.6513 16.327 38.0116 16.327 38.354 16.236C38.6964 16.1449 39.0091 15.966 39.2611 15.7169C40.4131 14.5789 44.4648 10.6538 48.6825 7.49565C50.8 5.9088 52.8913 4.56884 54.6375 3.8543C55.5123 3.49622 56.2236 3.3278 56.7632 3.31963C57.2782 3.31145 57.5619 3.44635 57.745 3.62948C57.9273 3.81097 58.0573 4.0873 58.0459 4.58846C58.0336 5.11741 57.8595 5.81641 57.4932 6.67811C56.7607 8.39741 55.3979 10.4552 53.7832 12.5399ZM60.4977 4.6465C60.5206 3.65482 60.2492 2.66559 59.4799 1.89628C58.7105 1.12697 57.7197 0.852274 56.7264 0.867807C55.7576 0.882523 54.7258 1.16866 53.708 1.58561C51.669 2.41951 49.3799 3.90908 47.2118 5.53272C43.0456 8.6533 39.069 12.468 37.707 13.8063L27.3675 11.1084C27.7378 10.232 27.792 9.25423 27.5209 8.34231C27.2497 7.43039 26.6701 6.64106 25.8811 6.10942C25.0921 5.57777 24.1429 5.33687 23.1959 5.42793C22.2489 5.51899 21.363 5.93637 20.6898 6.60861L18.7677 8.53066L6.42032 5.14929C6.07249 5.054 5.70563 5.05243 5.35701 5.14476C5.00838 5.23708 4.69038 5.42001 4.43531 5.67498L3.46897 6.64132C2.53288 7.57741 2.72501 9.12911 3.83033 9.82402C10.5792 14.0687 14.716 17.6103 19.9319 22.0758C21.6798 23.5719 23.5479 25.1718 25.6768 26.9369L16.1458 38.5812L4.66259 34.9194C4.30532 34.8055 3.9236 34.7921 3.55922 34.8806C3.19483 34.9692 2.86183 35.1562 2.59665 35.4214L1.09809 36.9199C0.878931 37.139 0.712437 37.405 0.611199 37.6978C0.509961 37.9906 0.476629 38.3027 0.513723 38.6103C0.550817 38.9179 0.657366 39.2131 0.825314 39.4735C0.993261 39.7338 1.21821 39.9526 1.48316 40.1133L10.795 45.7617C10.2522 46.6316 9.47058 47.9168 8.83044 49.1038C8.46827 49.7767 8.13144 50.4552 7.91152 51.0251C7.79752 51.3076 7.71154 51.6005 7.65481 51.8998C7.63028 52.0454 7.61066 52.2309 7.62783 52.4329C7.64418 52.6275 7.70386 52.9283 7.91806 53.2136C8.39551 53.8513 9.13539 53.8015 9.34631 53.7794C9.65698 53.7475 9.97337 53.6486 10.2415 53.5488C10.7958 53.3428 11.4597 53.0084 12.1104 52.6495C13.2648 52.0143 14.5271 51.2213 15.3806 50.6694L21.3667 59.8775C21.5325 60.1327 21.7533 60.3477 22.0129 60.5068C22.2725 60.6658 22.5643 60.7648 22.867 60.7967C23.1698 60.8285 23.4758 60.7922 23.7628 60.6906C24.0498 60.589 24.3104 60.4246 24.5257 60.2094L26.0455 58.6887C26.3116 58.4225 26.4989 58.0879 26.5869 57.7219C26.6749 57.3559 26.6601 56.9727 26.5442 56.6146L22.8857 45.3063L34.3943 35.5906C35.0647 36.3428 35.7113 37.0655 36.34 37.7669C42.2427 44.3596 46.4351 49.0417 51.7328 57.6987C52.4195 58.8212 53.9851 59.0256 54.9294 58.0821L55.8777 57.1338C56.1384 56.8732 56.3238 56.5469 56.4142 56.1895C56.5045 55.8322 56.4966 55.457 56.3912 55.1038L52.5806 42.3174L54.5362 40.3626C55.2018 39.698 55.6143 38.8217 55.7026 37.8853C55.7908 36.9488 55.5492 36.0109 55.0195 35.2336C54.4898 34.4563 53.7053 33.8884 52.8014 33.6281C51.8975 33.3677 50.9311 33.4312 50.0691 33.8075L47.2976 23.4018C48.6711 22.0488 52.5462 18.1409 55.7208 14.0417C57.3739 11.9079 58.892 9.65315 59.7488 7.63954C60.1764 6.63396 60.4748 5.61039 60.4969 4.64732L60.4977 4.6465Z" fill="#777777"/>
</svg>
