<svg width="60" height="60" viewBox="0 0 60 60" fill="none" xmlns="http://www.w3.org/2000/svg">
<g clip-path="url(#clip0_6008_10800)">
<path d="M46.7128 52.6397C46.6259 52.5637 46.5249 52.5056 46.4156 52.4686C46.3062 52.4317 46.1907 52.4167 46.0755 52.4244C45.9604 52.4321 45.8478 52.4624 45.7444 52.5136C45.641 52.5648 45.5486 52.6359 45.4726 52.7228L41.8491 56.867C41.4653 57.3063 40.9325 57.5591 40.3492 57.5788C39.7642 57.5996 39.2172 57.3824 38.8045 56.9702L36.0118 54.1787V52.3327C36.0118 51.8473 35.6184 51.4537 35.1329 51.4537C34.6474 51.4537 34.254 51.8473 34.254 52.3327V59.1211C34.254 59.6065 34.6474 60 35.1329 60C35.6184 60 36.0118 59.6065 36.0118 59.1211V56.6641L37.562 58.2136C38.2813 58.9322 39.2656 59.3378 40.2799 59.3378C41.3822 59.3378 42.4476 58.8541 43.1726 58.0239L46.796 53.8799C46.872 53.793 46.9301 53.692 46.967 53.5826C47.004 53.4733 47.019 53.3577 47.0113 53.2426C47.0036 53.1274 46.9732 53.0149 46.922 52.9114C46.8708 52.808 46.7997 52.7157 46.7128 52.6397ZM10.2115 51.4537C9.97839 51.4537 9.75484 51.5463 9.59001 51.7112C9.42519 51.876 9.33259 52.0996 9.33259 52.3327V59.1211C9.33259 59.6065 9.72599 60 10.2115 60C10.697 60 11.0904 59.6065 11.0904 59.1211V52.3327C11.0904 52.0996 10.9978 51.876 10.833 51.7112C10.6681 51.5463 10.4446 51.4537 10.2115 51.4537ZM58.8868 13.9338L52.9957 9.14719C52.5883 8.81625 52.0409 8.75062 51.5667 8.97633C51.0927 9.20191 50.7982 9.6682 50.7982 10.1932V21.4902C50.7982 21.4918 50.7986 21.4934 50.7986 21.495V35.7504L41.949 45.8433L39.1456 40.6091C37.8075 38.1091 35.3378 36.3423 32.5386 35.8827C31.3843 35.6932 28.6901 35.2527 27.7192 35.093C27.3691 35.0366 27.0506 34.8571 26.821 34.5869C26.5914 34.3166 26.4658 33.9733 26.4667 33.6188V32.5801C27.1597 32.1439 27.8018 31.6315 28.3809 31.0526C30.4415 28.9908 31.5762 26.2506 31.5762 23.3367V22.9547H31.9149C33.6538 22.9627 35.1328 21.4839 35.1328 19.7367C35.1328 18.8098 34.7257 17.9482 34.0655 17.3496C34.5764 16.6208 34.7213 15.6632 34.4305 14.8223C34.3054 14.4623 34.1078 14.1317 33.85 13.851C33.5921 13.5702 33.2795 13.3453 32.9313 13.1902C32.8391 13.1491 32.7459 13.1098 32.6531 13.0697V6.74297C32.6531 3.02496 29.6282 0 25.9102 0H15.4231C11.705 0 8.68009 3.02496 8.68009 6.74297V13.0697C8.58751 13.1098 8.4947 13.1491 8.40247 13.19C8.05428 13.3452 7.74159 13.5702 7.48372 13.8509C7.22585 14.1317 7.02827 14.4624 6.90317 14.8225C6.60868 15.6742 6.75329 16.6171 7.26657 17.3507C6.60692 17.9488 6.2004 18.8098 6.2004 19.7367C6.2004 21.4792 7.66243 22.9646 9.41954 22.9547H9.75821V23.3367C9.75821 27.2235 11.8006 30.6415 14.8677 32.5751V33.798C14.868 34.1256 14.7584 34.4438 14.5565 34.7017C14.3545 34.9596 14.0718 35.1423 13.7537 35.2205L6.45528 37.0205C4.73709 37.4414 3.21006 38.4272 2.11917 39.8198C1.02828 41.2124 0.436743 42.931 0.439462 44.7V59.1211C0.439462 59.6065 0.832861 60 1.31837 60C1.80388 60 2.19728 59.6065 2.19728 59.1211V44.7C2.19516 43.3242 2.65522 41.9875 3.50367 40.9044C4.35212 39.8213 5.53977 39.0545 6.8761 38.7272L12.5295 37.333C14.2773 40.136 17.3351 41.8505 20.6668 41.8505C24.1239 41.8505 27.2446 40.0377 28.9607 37.0777L32.2541 37.6173C34.5171 37.9889 36.514 39.4174 37.5959 41.4388L40.4326 46.735C40.5628 46.9784 40.7501 47.1867 40.9785 47.3419C41.2068 47.4971 41.4694 47.5947 41.7437 47.6262C42.0184 47.6577 42.2965 47.6222 42.5544 47.5227C42.8123 47.4232 43.0422 47.2626 43.2245 47.0548L49.2438 40.1897L53.0672 44.0145C53.0708 44.018 53.0747 44.021 53.0783 44.0245L48.1771 49.63C48.0269 49.8059 47.9522 50.0339 47.969 50.2646C47.9859 50.4953 48.093 50.7101 48.2671 50.8623C48.4412 51.0146 48.6684 51.0921 48.8993 51.078C49.1301 51.0639 49.3462 50.9594 49.5005 50.7871L57.5786 41.5485C59.232 39.673 58.942 36.6737 57.0061 35.1261C55.7056 34.0864 54.0025 33.8883 52.5563 34.4712V21.9082L58.8868 16.7646C59.0977 16.5939 59.2677 16.3782 59.3842 16.1333C59.5008 15.8883 59.5611 15.6204 59.5606 15.3491C59.5606 14.7975 59.3149 14.2816 58.8868 13.9338ZM33.375 19.7367C33.375 20.5289 32.7076 21.2009 31.9149 21.1969H31.5762V18.5297C31.907 18.5533 32.2394 18.5179 32.5579 18.4252C33.0489 18.6674 33.375 19.1762 33.375 19.7367ZM9.75821 21.1969H9.41954C8.6222 21.201 7.95821 20.53 7.95821 19.7367C7.95821 19.1767 8.28352 18.6688 8.77325 18.4269C9.09274 18.5199 9.42619 18.5554 9.75809 18.5318L9.75821 21.1969ZM9.97583 16.6934C9.47227 16.9166 8.88903 16.6982 8.627 16.2098C8.35091 15.6954 8.58247 15.0335 9.11567 14.7968C13.9442 12.6529 19.2741 11.8954 24.5087 12.6093C24.9888 12.6741 25.4326 12.3379 25.498 11.8569C25.5136 11.7425 25.5065 11.6262 25.4771 11.5146C25.4477 11.403 25.3966 11.2982 25.3267 11.2064C25.2568 11.1145 25.1696 11.0373 25.0698 10.9791C24.9701 10.921 24.8599 10.8831 24.7456 10.8675C19.9245 10.2104 15.0161 10.7273 10.4378 12.3743V6.74297C10.4378 3.9941 12.6741 1.75781 15.4229 1.75781H25.9102C28.659 1.75781 30.8953 3.9941 30.8953 6.74297V12.3739C30.2237 12.1323 29.5438 11.9146 28.8567 11.7211C28.6328 11.6595 28.3936 11.689 28.1914 11.8031C27.9892 11.9173 27.8403 12.1069 27.7774 12.3304C27.7145 12.554 27.7427 12.7933 27.8557 12.9962C27.9687 13.1991 28.1574 13.349 28.3806 13.4132C29.6911 13.7823 30.9735 14.2447 32.218 14.7967C32.7468 15.0314 32.9797 15.6939 32.7086 16.2062C32.4512 16.6923 31.8736 16.9218 31.3577 16.6932C24.799 13.7889 16.6219 13.7468 9.97583 16.6934ZM11.516 23.3367V17.9537C17.3803 15.6083 23.9545 15.6084 29.8185 17.9541V23.3367C29.8185 25.7812 28.8665 28.0802 27.1378 29.8099C25.4233 31.5257 23.1134 32.4913 20.6673 32.4913C15.6212 32.4914 11.516 28.3846 11.516 23.3367ZM20.6668 40.0927C18.14 40.0927 15.8064 38.8843 14.3425 36.8781C15.7754 36.433 16.7692 34.9997 16.6254 33.4724C17.9107 33.9869 19.2827 34.2506 20.6672 34.2492C22.0745 34.2492 23.44 33.9821 24.7089 33.4761C24.6189 34.9903 25.6622 36.3579 27.0863 36.7501C25.633 38.8366 23.2665 40.0927 20.6668 40.0927ZM55.9082 36.4986C57.086 37.4401 57.2598 39.2541 56.2552 40.3914L54.2377 42.6987L50.4054 38.8651L52.1908 36.829C52.6482 36.3051 53.2903 35.9783 53.9831 35.9167C54.6758 35.8552 55.3655 36.0637 55.9082 36.4986ZM57.7784 15.4003L52.5563 19.6433L52.5559 11.0549L57.7783 15.2981C57.8049 15.3146 57.8056 15.3832 57.7784 15.4003ZM25.5061 22.671C25.7392 22.671 25.9628 22.5784 26.1276 22.4136C26.2924 22.2487 26.385 22.0252 26.385 21.7921V19.8557C26.385 19.3703 25.9916 18.9768 25.5061 18.9768C25.0206 18.9768 24.6272 19.3703 24.6272 19.8557V21.7921C24.6272 22.0252 24.7198 22.2487 24.8846 22.4136C25.0494 22.5784 25.273 22.671 25.5061 22.671ZM15.8276 18.9769C15.5945 18.9769 15.3709 19.0695 15.2061 19.2343C15.0413 19.3991 14.9487 19.6227 14.9487 19.8558V21.7922C14.9487 22.2776 15.3421 22.6711 15.8276 22.6711C16.3131 22.6711 16.7065 22.2776 16.7065 21.7922V19.8558C16.7065 19.6227 16.6139 19.3991 16.4491 19.2343C16.2842 19.0695 16.0607 18.9769 15.8276 18.9769ZM23.3731 27.0418C23.2609 26.8375 23.0722 26.6861 22.8484 26.6208C22.6246 26.5556 22.3841 26.5819 22.1797 26.694C21.7059 26.9528 21.1738 27.0864 20.6339 27.0823C20.1162 27.0762 19.608 26.9428 19.154 26.694C18.9498 26.5848 18.7109 26.5606 18.489 26.6265C18.2671 26.6925 18.0801 26.8433 17.9688 27.0462C17.8574 27.2492 17.8306 27.4879 17.8941 27.7105C17.9577 27.9331 18.1065 28.1216 18.3082 28.2352C18.8004 28.5053 19.6002 28.8294 20.6155 28.8401C21.6413 28.8507 22.5182 28.5134 23.0252 28.2353C23.2296 28.1231 23.3811 27.9344 23.4463 27.7106C23.5115 27.4868 23.4852 27.2462 23.3731 27.0418Z" fill="#777777"/>
</g>
<defs>
<clipPath id="clip0_6008_10800">
<rect width="60" height="60" fill="white"/>
</clipPath>
</defs>
</svg>
