<svg width="70" height="60" viewBox="0 0 70 60" fill="none" xmlns="http://www.w3.org/2000/svg">
<path d="M15.791 18.1172C15.3722 18.1172 14.9706 18.2836 14.6744 18.5797C14.3783 18.8758 14.2119 19.2775 14.2119 19.6963V23.1262C14.2119 23.545 14.3783 23.9467 14.6744 24.2428C14.9706 24.539 15.3722 24.7053 15.791 24.7053C16.2099 24.7053 16.6115 24.539 16.9077 24.2428C17.2038 23.9467 17.3702 23.545 17.3702 23.1262V19.6963C17.3702 19.2775 17.2038 18.8758 16.9077 18.5797C16.6115 18.2836 16.2099 18.1172 15.791 18.1172ZM15.791 26.6951C15.3722 26.6951 14.9706 26.8614 14.6744 27.1576C14.3783 27.4537 14.2119 27.8554 14.2119 28.2742V31.7041C14.2119 32.1229 14.3783 32.5245 14.6744 32.8207C14.9706 33.1168 15.3722 33.2832 15.791 33.2832C16.2099 33.2832 16.6115 33.1168 16.9077 32.8207C17.2038 32.5245 17.3702 32.1229 17.3702 31.7041V28.2742C17.3702 27.8554 17.2038 27.4537 16.9077 27.1576C16.6115 26.8614 16.2099 26.6951 15.791 26.6951ZM15.791 35.2729C15.3722 35.2729 14.9706 35.4393 14.6744 35.7354C14.3783 36.0316 14.2119 36.4332 14.2119 36.852V40.2819C14.2119 40.7007 14.3783 41.1024 14.6744 41.3985C14.9706 41.6947 15.3722 41.8611 15.791 41.8611C16.2099 41.8611 16.6115 41.6947 16.9077 41.3985C17.2038 41.1024 17.3702 40.7007 17.3702 40.2819V36.852C17.3702 36.4332 17.2038 36.0316 16.9077 35.7354C16.6115 35.4393 16.2099 35.2729 15.791 35.2729Z" fill="#777777"/>
<path d="M10.8439 0C9.91592 0.0764982 9.03063 0.423082 8.29735 0.996965C7.56407 1.57085 7.0149 2.34691 6.71764 3.22933L4.61423 9.57903C2.04972 9.7938 6.66591e-08 11.9477 6.66591e-08 14.5628V20.8462C0.000236973 21.18 0.106282 21.5052 0.302902 21.775C0.499523 22.0449 0.776602 22.2454 1.09434 22.3479C3.0651 22.9843 4.73741 25.4588 4.73741 28.4892C4.73741 31.5211 3.0651 33.9972 1.09434 34.632C0.776345 34.7346 0.499082 34.9354 0.302438 35.2055C0.105793 35.4757 -9.6989e-05 35.8012 6.66591e-08 36.1353V45.5723C0.00622927 46.903 0.537627 48.1775 1.47861 49.1185C2.4196 50.0594 3.69407 50.5908 5.02481 50.5971H29.9546L56.7652 59.7513C59.2413 60.5962 61.9495 59.2128 62.7659 56.7462L64.8124 50.5592C67.4022 50.3728 69.4819 48.2063 69.4819 45.5723V36.1322C69.4817 35.7983 69.3757 35.4731 69.179 35.2033C68.9824 34.9335 68.7053 34.7329 68.3876 34.6304C66.4168 33.994 64.7445 31.5195 64.7445 28.4876C64.7445 25.4572 66.4168 22.9812 68.3876 22.3448C68.7053 22.2423 68.9824 22.0417 69.179 21.7719C69.3757 21.5021 69.4817 21.1769 69.4819 20.843V14.5628C69.4753 13.2323 68.9437 11.9583 68.0028 11.0176C67.0618 10.077 65.7876 9.54578 64.4571 9.53956H39.5336L12.7278 0.224238C12.1072 0.007896 11.4298 0.034741 10.8455 0H10.8439ZM11.0761 3.133C11.2813 3.11879 11.4945 3.14564 11.7077 3.2167L29.9057 9.53956H7.95568L9.71484 4.21787C9.80541 3.9206 9.98399 3.65778 10.227 3.46409C10.47 3.27041 10.7661 3.15497 11.0761 3.133ZM5.02481 12.6978H14.2122V14.1996C14.2122 14.6184 14.3786 15.0201 14.6747 15.3162C14.9709 15.6123 15.3725 15.7787 15.7914 15.7787C16.2102 15.7787 16.6118 15.6123 16.908 15.3162C17.2041 15.0201 17.3705 14.6184 17.3705 14.1996V12.6978H64.4571C65.5183 12.6978 66.3237 13.5032 66.3237 14.5628V19.9397C63.407 21.4762 61.5863 24.7877 61.5863 28.4892C61.5863 32.1891 63.4086 35.5005 66.3237 37.0355V45.5723C66.3237 46.6334 65.5183 47.4388 64.4571 47.4388H17.3673C17.3752 46.894 17.3705 46.3334 17.3705 45.7823C17.3705 45.3635 17.2041 44.9618 16.908 44.6657C16.6118 44.3695 16.2102 44.2032 15.7914 44.2032C15.3725 44.2032 14.9709 44.3695 14.6747 44.6657C14.3786 44.9618 14.2122 45.3635 14.2122 45.7823C14.2091 46.3302 14.2122 46.8972 14.2154 47.4388H5.02481C3.96205 47.4388 3.15827 46.6334 3.15827 45.5723V37.0386C6.07493 35.5021 7.89568 32.1907 7.89568 28.4892C7.89568 24.7877 6.07335 21.4778 3.15827 19.9429V14.5628C3.15827 13.5016 3.96363 12.6978 5.02481 12.6978ZM39.7279 50.5971H61.4726L59.7671 55.7529C59.4829 56.6104 58.6222 57.0478 57.7869 56.7636L39.7279 50.5971Z" fill="#777777"/>
<path d="M48.5771 32.46C51.3879 32.46 53.6998 34.7703 53.6998 37.5811C53.6998 40.392 51.3879 42.707 48.5771 42.707C45.7662 42.707 43.4512 40.392 43.4512 37.5811C43.4512 34.7703 45.7662 32.46 48.5771 32.46ZM48.5771 35.6182C47.4717 35.6182 46.6095 36.4773 46.6095 37.5811C46.6095 38.6849 47.4733 39.5487 48.5771 39.5487C49.6809 39.5487 50.5415 38.6865 50.5415 37.5811C50.5415 36.4757 49.6809 35.6182 48.5771 35.6182ZM33.5405 17.4219C34.8971 17.4285 36.1962 17.9704 37.1555 18.9296C38.1148 19.8889 38.6566 21.188 38.6633 22.5446C38.6633 25.3554 36.3514 27.6673 33.539 27.6673C30.7265 27.6673 28.4131 25.3554 28.4131 22.5446C28.4197 21.1875 28.962 19.8879 29.922 18.9285C30.8819 17.9692 32.1834 17.4277 33.5405 17.4219ZM33.5405 20.5801C32.4351 20.5801 31.5714 21.4408 31.5714 22.5446C31.5714 23.65 32.4351 24.509 33.539 24.509C34.6444 24.509 35.505 23.6484 35.505 22.5446C35.505 21.4392 34.6459 20.5801 33.5405 20.5801ZM47.4606 21.4281L32.4209 36.4678C32.1333 36.7657 31.9741 37.1645 31.9777 37.5786C31.9813 37.9926 32.1474 38.3887 32.4402 38.6815C32.733 38.9743 33.129 39.1403 33.5431 39.1439C33.9571 39.1475 34.356 38.9884 34.6538 38.7007L49.6935 23.661C49.9896 23.3649 50.1559 22.9633 50.1559 22.5446C50.1559 22.1259 49.9896 21.7243 49.6935 21.4281C49.0476 20.8549 48.067 20.7949 47.4606 21.4281Z" fill="#777777"/>
</svg>
