<svg width="60" height="60" viewBox="0 0 60 60" fill="none" xmlns="http://www.w3.org/2000/svg">
<g clip-path="url(#clip0_6015_10915)">
<path d="M43.7584 0H16.2415C7.28577 0 0 7.28577 0 16.2415V43.7589C0 52.7141 7.28577 59.9999 16.2415 59.9999H43.7589C52.7141 59.9999 59.9999 52.7141 59.9999 43.7589V16.2415C59.9999 7.28577 52.7141 0 43.7584 0ZM56.4824 43.7589C56.4824 50.7745 50.7745 56.4824 43.7584 56.4824H16.2415C9.22533 56.4824 3.51749 50.7745 3.51749 43.7589V16.2415C3.51749 9.22533 9.22533 3.51749 16.2415 3.51749H43.7589C50.7745 3.51749 56.4824 9.22533 56.4824 16.2415V43.7589Z" fill="white"/>
<path d="M29.9995 13.596C20.9532 13.596 13.5938 20.9554 13.5938 30.0018C13.5938 39.0482 20.9531 46.4075 29.9995 46.4075C39.0459 46.4075 46.4053 39.0482 46.4053 30.0018C46.4053 20.9554 39.0459 13.596 29.9995 13.596ZM29.9995 42.89C22.8933 42.89 17.1113 37.1086 17.1113 30.0018C17.1113 22.8955 22.8933 17.1135 29.9995 17.1135C37.1064 17.1135 42.8878 22.8955 42.8878 30.0018C42.8878 37.1086 37.1064 42.89 29.9995 42.89ZM46.7977 7.76953C44.1243 7.76953 41.95 9.94441 41.95 12.6172C41.95 15.2906 44.1243 17.4654 46.7977 17.4654C49.4711 17.4654 51.6457 15.2906 51.6457 12.6173C51.6457 9.94406 49.4709 7.76953 46.7977 7.76953ZM46.7977 13.9475C46.0643 13.9475 45.4673 13.3506 45.4673 12.6172C45.4673 11.8835 46.0643 11.287 46.7977 11.287C47.5314 11.287 48.1283 11.8835 48.1283 12.6172C48.1283 13.3506 47.5314 13.9475 46.7977 13.9475Z" fill="white"/>
</g>
<defs>
<clipPath id="clip0_6015_10915">
<rect width="60" height="60" fill="white"/>
</clipPath>
</defs>
</svg>
