<svg width="42" height="51" viewBox="0 0 42 51" fill="none" xmlns="http://www.w3.org/2000/svg">
<path fill-rule="evenodd" clip-rule="evenodd" d="M20.682 0.664062C12.0239 0.664062 4.98438 7.76639 4.98438 16.5269C4.98438 19.4943 6.29135 23.1757 8.19368 26.8478C12.382 34.9338 19.3588 43.078 19.3588 43.078C19.5225 43.2687 19.7256 43.4217 19.9539 43.5267C20.1823 43.6316 20.4307 43.6859 20.682 43.6859C20.9334 43.6859 21.1818 43.6316 21.4102 43.5267C21.6385 43.4217 21.8416 43.2687 22.0053 43.078C22.0053 43.078 28.9821 34.9338 33.1704 26.8478C35.0727 23.1757 36.3797 19.4943 36.3797 16.5269C36.3797 7.76639 29.3402 0.664062 20.682 0.664062ZM20.682 4.15243C27.4262 4.15243 32.8914 9.7036 32.8914 16.5269C32.8914 19.9362 30.7286 24.378 28.2309 28.5199C25.5518 32.9617 22.4169 37.0408 20.682 39.1989C18.9472 37.0408 15.8123 32.9617 13.1332 28.5199C10.6355 24.378 8.47275 19.9362 8.47275 16.5269C8.47275 9.7036 13.9379 4.15243 20.682 4.15243Z" fill="white"/>
<path fill-rule="evenodd" clip-rule="evenodd" d="M20.6818 9.96875C19.0156 10.0137 17.4326 10.7072 16.2699 11.9017C15.1072 13.0961 14.4567 14.6972 14.4567 16.3641C14.4567 18.031 15.1072 19.6321 16.2699 20.8265C17.4326 22.021 19.0156 22.7145 20.6818 22.7594C22.3481 22.7145 23.9311 22.021 25.0938 20.8265C26.2565 19.6321 26.907 18.031 26.907 16.3641C26.907 14.6972 26.2565 13.0961 25.0938 11.9017C23.9311 10.7072 22.3481 10.0137 20.6818 9.96875ZM20.6818 13.4571C21.4528 13.4571 22.1922 13.7634 22.7374 14.3086C23.2826 14.8537 23.5888 15.5931 23.5888 16.3641C23.5888 17.1351 23.2826 17.8745 22.7374 18.4196C22.1922 18.9648 21.4528 19.2711 20.6818 19.2711C19.9109 19.2711 19.1715 18.9648 18.6263 18.4196C18.0811 17.8745 17.7749 17.1351 17.7749 16.3641C17.7749 15.5931 18.0811 14.8537 18.6263 14.3086C19.1715 13.7634 19.9109 13.4571 20.6818 13.4571ZM31.8074 38.1711C33.6981 38.7385 35.2563 39.4408 36.333 40.2641C37.0307 40.7943 37.5423 41.3129 37.5423 41.9455C37.5423 42.3176 37.3307 42.6548 37.033 42.992C36.54 43.5478 35.8074 44.0478 34.9004 44.5129C31.6958 46.1525 26.5144 47.1781 20.6818 47.1781C14.8493 47.1781 9.66789 46.1525 6.46324 44.5129C5.55626 44.0478 4.82371 43.5478 4.33068 42.992C4.03301 42.6548 3.82138 42.3176 3.82138 41.9455C3.82138 41.3129 4.33301 40.7943 5.03068 40.2641C6.10743 39.4408 7.66557 38.7385 9.55626 38.1711C9.99942 38.0379 10.3715 37.734 10.5907 37.3265C10.8098 36.9189 10.8581 36.441 10.7249 35.9978C10.5916 35.5547 10.2878 35.1826 9.88027 34.9634C9.4727 34.7443 8.99477 34.696 8.55161 34.8292C5.67254 35.6967 3.43533 36.885 2.09115 38.199C0.909752 39.3501 0.333008 40.6385 0.333008 41.9455C0.333008 43.5781 1.25626 45.206 3.13301 46.5641C6.42603 48.9455 13.04 50.6664 20.6818 50.6664C28.3237 50.6664 34.9377 48.9455 38.2307 46.5641C40.1074 45.206 41.0307 43.5781 41.0307 41.9455C41.0307 40.6385 40.4539 39.3501 39.2725 38.199C37.9284 36.885 35.6911 35.6967 32.8121 34.8292C32.5926 34.7632 32.3624 34.7411 32.1344 34.7642C31.9064 34.7872 31.6852 34.8549 31.4834 34.9634C31.2816 35.0719 31.1032 35.2191 30.9582 35.3966C30.8133 35.5741 30.7048 35.7784 30.6388 35.9978C30.5729 36.2172 30.5508 36.4475 30.5738 36.6755C30.5968 36.9035 30.6645 37.1247 30.773 37.3265C30.8815 37.5283 31.0287 37.7067 31.2062 37.8516C31.3837 37.9966 31.588 38.1051 31.8074 38.1711Z" fill="white"/>
</svg>
