<svg width="51" height="50" viewBox="0 0 51 50" fill="none" xmlns="http://www.w3.org/2000/svg">
<path d="M48.7378 18.2045L41.9226 12.5554V7.99645C41.9207 7.51951 41.7298 7.06279 41.3917 6.72638C41.0536 6.38997 40.596 6.20133 40.119 6.20181H34.261L27.7922 0.833058C27.1429 0.294659 26.3259 0 25.4824 0C24.6389 0 23.8219 0.294659 23.1726 0.833058L16.703 6.20091H10.8414C10.3655 6.20139 9.90933 6.39061 9.57287 6.72707C9.23641 7.06353 9.04718 7.51973 9.04671 7.99555V12.5491L2.22885 18.2054C1.81873 18.5442 1.48868 18.9697 1.26237 19.4511C1.03607 19.9326 0.919125 20.4582 0.919926 20.9902V46.3839C0.921342 47.3424 1.30265 48.2612 1.9803 48.939C2.65794 49.6168 3.57665 49.9983 4.5351 50H46.4288C47.3876 49.9988 48.3068 49.6175 48.9848 48.9396C49.6628 48.2618 50.0444 47.3427 50.0458 46.3839V20.9884C50.0467 20.4563 49.9299 19.9307 49.7038 19.4491C49.4776 18.9674 49.1477 18.5418 48.7378 18.2027V18.2045ZM47.5985 19.5795C47.7119 19.717 47.944 19.7964 47.6895 19.8866L41.9226 24.5804V14.875L47.5985 19.5795ZM9.0476 14.8706V24.5848L3.27528 19.8866C3.0226 19.7973 3.25207 19.717 3.36725 19.5795L9.0476 14.8706ZM4.536 48.2143C4.43533 48.2125 4.33498 48.2023 4.236 48.1839L10.7387 42.7063C10.9198 42.5536 11.0329 42.3353 11.0531 42.0993C11.0733 41.8633 10.9989 41.6289 10.8463 41.4478C10.6936 41.2666 10.4753 41.1535 10.2393 41.1333C10.0033 41.1132 9.76893 41.1876 9.58778 41.3402L2.82885 47.033C2.74795 46.8258 2.70588 46.6055 2.70475 46.383V21.7241L15.9021 32.4661C16.0865 32.6058 16.318 32.6686 16.5478 32.641C16.7775 32.6134 16.9876 32.4977 17.1337 32.3182C17.2798 32.1388 17.3506 31.9096 17.331 31.679C17.3114 31.4484 17.2031 31.2344 17.0288 31.0822L10.8324 26.0384L10.8414 7.98663H23.6985C23.9353 7.98663 24.1624 7.89256 24.3298 7.72512C24.4973 7.55767 24.5913 7.33057 24.5913 7.09377C24.5913 6.85697 24.4973 6.62987 24.3298 6.46242C24.1624 6.29498 23.9353 6.20091 23.6985 6.20091H19.5003L24.3137 2.20716C24.6424 1.93431 25.0561 1.78496 25.4833 1.78496C25.9105 1.78496 26.3242 1.93431 26.6529 2.20716L31.4654 6.20091H27.2717C27.0349 6.20091 26.8078 6.29498 26.6404 6.46242C26.4729 6.62987 26.3788 6.85697 26.3788 7.09377C26.3788 7.33057 26.4729 7.55767 26.6404 7.72512C26.8078 7.89256 27.0349 7.98663 27.2717 7.98663L40.1378 7.99555C40.136 11.2902 40.1396 22.5464 40.1378 26.0339L33.936 31.0813C33.7579 31.2324 33.6462 31.4473 33.6248 31.6799C33.6034 31.9125 33.6739 32.1442 33.8213 32.3254C33.9687 32.5065 34.1813 32.6227 34.4133 32.649C34.6454 32.6753 34.8786 32.6097 35.0628 32.4661L48.2592 21.7241V46.383C48.2577 46.6046 48.2157 46.824 48.1351 47.0304L27.8128 29.9232C27.1623 29.37 26.3364 29.066 25.4825 29.0655C24.6285 29.065 23.8023 29.3681 23.1512 29.9205L12.3208 39.0455C12.1397 39.1982 12.0266 39.4165 12.0064 39.6525C11.9862 39.8885 12.0606 40.1229 12.2132 40.304C12.3658 40.4852 12.5842 40.5983 12.8202 40.6185C13.0562 40.6386 13.2906 40.5642 13.4717 40.4116L24.3021 31.2866C24.6311 31.0067 25.0491 30.853 25.4811 30.853C25.9131 30.853 26.331 31.0067 26.6601 31.2866L46.7333 48.1839C46.411 48.2938 4.8735 48.1688 4.536 48.2143Z" fill="white"/>
<path d="M24.2122 25.2507C26.0851 25.58 28.0125 25.1631 29.5818 24.0891C29.6785 24.0227 29.7611 23.9379 29.825 23.8395C29.8889 23.7412 29.9328 23.6312 29.9542 23.5158C29.9756 23.4005 29.9741 23.2821 29.9497 23.1674C29.9253 23.0526 29.8786 22.9438 29.8122 22.8472C29.7458 22.7505 29.6609 22.6678 29.5626 22.6039C29.4642 22.54 29.3542 22.4962 29.2389 22.4748C29.1236 22.4534 29.0052 22.4549 28.8904 22.4793C28.7757 22.5036 28.6669 22.5504 28.5702 22.6168C27.384 23.428 25.927 23.7415 24.5122 23.49C17.6595 22.0641 19.1256 12.0945 26.0872 12.6793C27.3078 12.8169 28.4466 13.361 29.3205 14.2242C30.1943 15.0874 30.7525 16.2194 30.905 17.4382C30.9434 18.2954 31.1586 19.865 29.9675 19.9427C29.7374 19.942 29.517 19.8502 29.3543 19.6874C29.1917 19.5246 29.1001 19.3041 29.0997 19.0739V15.3864C29.0989 15.1803 29.0268 14.9809 28.8957 14.8218C28.7646 14.6628 28.5825 14.554 28.3804 14.514C28.1782 14.4739 27.9684 14.5051 27.7865 14.6021C27.6047 14.6991 27.462 14.856 27.3827 15.0463C26.8104 14.6882 26.1493 14.4974 25.4742 14.4956C24.7992 14.4938 24.137 14.681 23.5628 15.036C22.9886 15.391 22.5253 15.8997 22.2252 16.5044C21.9252 17.1092 21.8004 17.7859 21.8651 18.4578C21.9297 19.1298 22.1812 19.7703 22.591 20.3068C23.0008 20.8433 23.5526 21.2543 24.1839 21.4934C24.8153 21.7324 25.5009 21.79 26.1633 21.6595C26.8257 21.5291 27.4383 21.2158 27.9318 20.7552C28.2507 21.1348 28.6691 21.4179 29.14 21.5727C29.611 21.7274 30.1158 21.7477 30.5976 21.6313C31.0795 21.5149 31.5193 21.2663 31.8676 20.9136C32.216 20.5609 32.459 20.1179 32.5693 19.6347C32.9044 18.08 32.7188 16.4583 32.0413 15.0195C31.3637 13.5808 30.2318 12.4047 28.8199 11.6728C27.408 10.9408 25.7946 10.6935 24.2283 10.9689C22.662 11.2444 21.2298 12.0274 20.1524 13.1972C16.2818 17.24 18.6318 24.3873 24.2122 25.2507ZM25.4827 19.9409C24.9972 19.9409 24.5315 19.748 24.1881 19.4047C23.8448 19.0613 23.6519 18.5957 23.6519 18.1101C23.6519 17.6245 23.8448 17.1589 24.1881 16.8155C24.5315 16.4722 24.9972 16.2793 25.4827 16.2793C25.9683 16.2793 26.4339 16.4722 26.7773 16.8155C27.1206 17.1589 27.3135 17.6245 27.3135 18.1101C27.3135 18.5957 27.1206 19.0613 26.7773 19.4047C26.4339 19.748 25.9683 19.9409 25.4827 19.9409Z" fill="white"/>
</svg>
