<svg width="512" height="352" viewBox="0 0 512 352" fill="none" xmlns="http://www.w3.org/2000/svg">
<path d="M496 32H16C11.7565 32 7.68687 30.3143 4.68629 27.3137C1.68571 24.3131 0 20.2435 0 16C0 11.7565 1.68571 7.68688 4.68629 4.68629C7.68687 1.68571 11.7565 0 16 0H496C500.243 0 504.313 1.68571 507.314 4.68629C510.314 7.68688 512 11.7565 512 16C512 20.2435 510.314 24.3131 507.314 27.3137C504.313 30.3143 500.243 32 496 32ZM496 192H16C11.7565 192 7.68687 190.314 4.68629 187.314C1.68571 184.313 0 180.243 0 176C0 171.757 1.68571 167.687 4.68629 164.686C7.68687 161.686 11.7565 160 16 160H496C500.243 160 504.313 161.686 507.314 164.686C510.314 167.687 512 171.757 512 176C512 180.243 510.314 184.313 507.314 187.314C504.313 190.314 500.243 192 496 192ZM496 352H16C11.7565 352 7.68687 350.314 4.68629 347.314C1.68571 344.313 0 340.243 0 336C0 331.757 1.68571 327.687 4.68629 324.686C7.68687 321.686 11.7565 320 16 320H496C500.243 320 504.313 321.686 507.314 324.686C510.314 327.687 512 331.757 512 336C512 340.243 510.314 344.313 507.314 347.314C504.313 350.314 500.243 352 496 352Z" fill="#152D45"/>
</svg>
