<svg width="30" height="30" viewBox="0 0 30 30" fill="none" xmlns="http://www.w3.org/2000/svg">
<path d="M29.7253 11.2191C29.6024 10.8408 29.3771 10.5039 29.0746 10.2456C28.772 9.98725 28.404 9.81766 28.011 9.75553L20.3105 8.57372L16.8594 1.25145C16.6912 0.878741 16.4191 0.562444 16.0757 0.340477C15.7323 0.11851 15.3322 0.000293678 14.9233 0C14.0897 0 13.3472 0.480008 12.9872 1.24931L9.53499 8.57479L1.8345 9.7566C1.4417 9.81908 1.07378 9.98879 0.771288 10.247C0.468797 10.5053 0.243484 10.8421 0.120183 11.2202C-0.0132037 11.6108 -0.0360645 12.0306 0.0541248 12.4333C0.144314 12.836 0.344045 13.206 0.631263 13.5024L6.23493 19.2689L4.91062 27.4248C4.77134 28.2841 5.11848 29.1219 5.81814 29.6137C6.1415 29.8419 6.52275 29.9742 6.91798 29.9952C7.31321 30.0163 7.70634 29.9253 8.05211 29.7327L14.9051 25.9097L21.7956 29.7327C22.1408 29.9264 22.5339 30.0181 22.9293 29.997C23.3246 29.976 23.7058 29.8431 24.0285 29.6137C24.3714 29.3724 24.6388 29.0387 24.7995 28.6514C24.9601 28.264 25.0075 27.839 24.936 27.4258L23.6117 19.27L29.2153 13.5034C29.5026 13.2071 29.7023 12.8371 29.7925 12.4344C29.8827 12.0316 29.8598 11.6118 29.7264 11.2213L29.7253 11.2191Z" fill="#FFCB2B"/>
</svg>
